<?xml version="1.0" encoding="utf-8"?>
<!-- Generator: Adobe Illustrator 26.4.1, SVG Export Plug-In . SVG Version: 6.00 Build 0)  -->
<svg version="1.1" id="Calque_1" xmlns="http://www.w3.org/2000/svg" xmlns:xlink="http://www.w3.org/1999/xlink" x="0px" y="0px"
	 viewBox="0 0 2000 2000" style="enable-background:new 0 0 2000 2000;" xml:space="preserve">
<style type="text/css">
	.st0{fill:#C07313;}
	.st1{fill:#74250E;}
	.st2{fill:#FFFFFF;}
</style>
<g>
	<g>
		<g>
			<path class="st0" d="M1118.39-1368.04c0,14.58,6.91,27.56,17.6,35.84l9.3-74.15c0.15-1.12,0.27-2.2,0.42-3.26
				C1129.65-1402.67,1118.39-1386.67,1118.39-1368.04z M1186.14-1407.38c0,0.33,0.03,0.66,0.06,1.03l4.86,74.39
				c10.87-8.27,17.9-21.37,17.9-36.08C1208.96-1384.89,1199.78-1399.56,1186.14-1407.38z M786.3-1368.04
				c0,16.39,8.72,30.79,21.8,38.73l4.86-77.05c0.06-1.03,0.12-2.05,0.21-3.05C797.35-1402.37,786.3-1386.52,786.3-1368.04z
				 M853.71-1407.56c0.06,0.39,0.09,0.82,0.15,1.21l9.09,70.98c8.57-8.24,13.92-19.83,13.92-32.67
				C876.87-1385.04,867.54-1399.8,853.71-1407.56z M1323.14-1048.99l-26.72-365.72c-3.35-46.73-15.03-80.7-35.08-101.86
				c-20.05-21.13-50.93-31.73-92.68-31.73c-38.4,0-67.5,10.6-87.25,31.73c-19.77,21.16-31.88,55.13-36.32,101.86l-30.91,294.75
				c-1.12,12.26-2.51,19.93-4.17,22.97c-1.66,3.08-5.01,4.59-10.02,4.59c-5.01,0-8.33-1.51-10.02-4.59
				c-1.66-3.05-3.05-10.72-4.17-22.97l-30.88-294.75c-5.01-46.73-17.27-80.7-36.74-101.86c-19.5-21.13-48.73-31.73-87.67-31.73
				c-41.21,0-71.82,10.6-91.87,31.73c-20.02,21.16-31.73,55.13-35.05,101.86l-26.72,365.72c-1.12,19.5,1.39,32.45,7.52,38.82
				c6.1,6.43,18.63,9.63,37.56,9.63h16.7c19.5,0,32.7-3.35,39.67-10.02c6.94-6.7,10.99-19.5,12.11-38.43l15.25-241.76
				c-32.3-10.84-55.58-41.33-55.58-77.29c0-45.04,36.5-81.51,81.51-81.51c45.04,0,81.51,36.47,81.51,81.51
				c0,31.88-18.3,59.5-44.98,72.88l25,195.24c4.35,31.76,12.83,55.34,25.48,70.65c12.68-9.84,28.59-15.73,45.8-15.73h72.55
				c17.72,0,34.02,6.22,46.88,16.6c11.53-15.25,19.23-39.1,23.04-71.52l24.24-193.37c-28.8-12.59-48.94-41.33-48.94-74.75
				c0-45.04,36.5-81.51,81.51-81.51c45.04,0,81.51,36.47,81.51,81.51c0,34.42-21.34,63.88-51.53,75.81l15.91,243.24
				c1.12,18.93,5.16,31.73,12.11,38.43c6.97,6.67,20.2,10.02,39.67,10.02h16.7c18.93,0,31.46-3.2,37.59-9.63
				C1321.75-1016.54,1324.26-1029.49,1323.14-1048.99z M1057.95-1009.23c-0.54-0.45-1.12-0.91-1.69-1.33
				c-0.27-0.24-0.57-0.45-0.85-0.63c-0.21-0.18-0.45-0.36-0.72-0.54c-0.24-0.18-0.48-0.33-0.72-0.51c-1-0.66-1.99-1.33-3.02-1.93
				c-0.12-0.09-0.27-0.18-0.42-0.27c-1.03-0.63-2.08-1.21-3.17-1.78c-0.03,0-0.03,0-0.03,0c-0.21-0.12-0.45-0.24-0.66-0.33
				c-0.3-0.18-0.6-0.33-0.91-0.45c-0.54-0.27-1.12-0.54-1.69-0.78c-0.09-0.06-0.18-0.09-0.27-0.12c-0.51-0.24-1.03-0.45-1.57-0.66
				c-0.51-0.21-1.03-0.42-1.57-0.6c-0.24-0.12-0.51-0.21-0.78-0.3c-0.3-0.12-0.6-0.24-0.91-0.33c-0.39-0.15-0.78-0.27-1.21-0.39
				c-0.63-0.21-1.27-0.39-1.9-0.57c-0.3-0.09-0.6-0.18-0.91-0.24c-0.6-0.18-1.24-0.33-1.87-0.45c-0.66-0.18-1.36-0.33-2.05-0.45
				c-0.54-0.12-1.09-0.21-1.66-0.3c-0.21-0.03-0.39-0.09-0.6-0.09c-0.33-0.06-0.66-0.12-1-0.15c-0.12-0.03-0.27-0.06-0.39-0.06
				c-0.06-0.03-0.12-0.03-0.18-0.03c-0.63-0.09-1.3-0.15-1.96-0.21c-0.6-0.06-1.24-0.12-1.87-0.15c-0.27-0.03-0.51-0.06-0.78-0.06
				c-0.18,0-0.36-0.03-0.54-0.03c-0.91-0.03-1.81-0.06-2.75-0.06h-34.39c-1.06,0-2.11,0.03-3.14,0.09
				c-0.57,0.03-1.12,0.06-1.69,0.12c-0.27,0-0.51,0.03-0.78,0.06c-0.21,0-0.39,0.03-0.63,0.06c-0.36,0.03-0.69,0.06-1.06,0.12
				c-0.27,0.03-0.57,0.06-0.88,0.12c-0.45,0.03-0.94,0.12-1.39,0.18c-0.57,0.09-1.15,0.18-1.72,0.3c-0.51,0.09-1.03,0.21-1.51,0.3
				c-1.03,0.21-2.02,0.45-3.02,0.72c-1.69,0.45-3.35,0.97-4.95,1.57c-0.72,0.27-1.45,0.54-2.14,0.85c-0.03,0-0.03,0.03-0.03,0.03
				c-0.21,0.06-0.42,0.15-0.63,0.24c-0.21,0.06-0.42,0.15-0.6,0.27c-0.75,0.3-1.48,0.63-2.2,1c-0.24,0.09-0.45,0.21-0.69,0.33
				c-0.36,0.18-0.75,0.36-1.12,0.57c-0.18,0.06-0.33,0.15-0.51,0.27c-0.42,0.21-0.85,0.45-1.27,0.69c-0.06,0-0.12,0.06-0.21,0.12
				c-0.72,0.39-1.42,0.82-2.11,1.24c-0.81,0.51-1.63,1.06-2.42,1.6c-1.3,0.91-2.57,1.84-3.8,2.84c14.34,5.92,32.21,8.85,53.62,8.85
				c24.3,0,43.66-2.87,58.09-8.6C1058.04-1009.17,1057.98-1009.2,1057.95-1009.23z"/>
		</g>
	</g>
	<path class="st1" d="M876.87-1368.04c0,12.83-5.34,24.42-13.92,32.67c-8.15,7.82-19.17,12.62-31.37,12.62
		c-8.6,0-16.63-2.39-23.49-6.55c-13.07-7.94-21.8-22.34-21.8-38.73c0-18.48,11.05-34.33,26.87-41.36
		c5.62-2.54,11.86-3.92,18.42-3.92c8.06,0,15.61,2.08,22.13,5.77C867.54-1399.8,876.87-1385.04,876.87-1368.04z"/>
	<path class="st1" d="M1208.96-1368.04c0,14.7-7.03,27.81-17.9,36.08c-7.61,5.77-17.09,9.21-27.38,9.21
		c-10.42,0-20.02-3.53-27.68-9.45c-10.69-8.27-17.6-21.25-17.6-35.84c0-18.63,11.26-34.63,27.32-41.57
		c5.53-2.39,11.59-3.71,17.96-3.71c8.18,0,15.85,2.17,22.46,5.95C1199.78-1399.56,1208.96-1384.89,1208.96-1368.04z"/>
	<path class="st1" d="M1080.5-961.9c0,2.81-1.15,5.37-2.99,7.22c-1.84,1.84-4.41,2.99-7.22,2.99H933.87c-5.61,0-10.2-4.59-10.2-10.2
		c0-1.54,0.06-3.08,0.21-4.62c1.09-15,7.7-28.53,17.78-38.61c11.08-11.08,26.42-17.96,43.23-17.96h34.39
		c32.12,0,58.66,25.06,61.01,56.58C1080.44-964.97,1080.5-963.44,1080.5-961.9z"/>
</g>
<g>
	<g>
		<g>
			<path class="st1" d="M-1215.3-1287.12v66.3c0,18.98-6.13,33.03-18.4,42.17c-12.27,9.14-31.24,13.71-56.93,13.71
				c-25.69,0-44.66-4.45-56.93-13.36c-12.27-8.91-18.4-22.74-18.4-41.48c0-36.1,23.48-54.15,70.46-54.15h35.06v-13.19
				c0-7.86-2.78-13.36-8.33-16.49c-5.55-3.12-14.81-4.69-27.77-4.69c-9.72,0-19.79,0.69-30.2,2.08c-7.64,1.16-12.79,0.64-15.45-1.56
				c-2.66-2.2-3.99-7.12-3.99-14.75v-1.39c0-7.4,1.21-12.5,3.64-15.27c2.43-2.78,7.46-4.74,15.1-5.9
				c10.87-1.16,20.25-1.74,28.12-1.74c28.46,0,49.58,4.75,63.35,14.23C-1222.19-1323.1-1215.3-1307.95-1215.3-1287.12z
				 M-1260.42-1223.25v-16.66h-35.75c-16.43,0-24.64,6.37-24.64,19.09c0.69,7.41,3.24,12.32,7.64,14.75
				c4.39,2.43,11.68,3.53,21.87,3.3c10.41,0.23,17.99-1.09,22.74-3.99C-1263.84-1209.66-1261.12-1215.15-1260.42-1223.25z"/>
			<path class="st1" d="M-1181.28-1188.54v-204.1c0-7.86,1.27-13.07,3.82-15.62c2.54-2.54,7.75-3.82,15.62-3.82h6.25
				c7.86,0,13.07,1.27,15.62,3.82c2.54,2.55,3.82,7.76,3.82,15.62v204.1c0,7.87-1.27,13.08-3.82,15.62
				c-2.55,2.55-7.76,3.82-15.62,3.82h-6.25c-7.87,0-13.08-1.27-15.62-3.82C-1180.01-1175.47-1181.28-1180.67-1181.28-1188.54z
				 M-1110.82-1293.02l28.12-34.71c4.86-6.02,9.37-10.01,13.54-11.98c4.17-1.96,10.18-2.95,18.05-2.95h17.36
				c7.86,0,12.2,0.99,13.02,2.95c0.81,1.97-1.21,5.96-6.07,11.98l-45.47,55.54c-4.4,4.4-6.6,8.22-6.6,11.45
				c0,2.55,2.08,6.25,6.25,11.11l53.11,65.26c4.86,6.02,6.82,10.07,5.9,12.15c-0.93,2.08-5.33,3.12-13.19,3.12h-17.36
				c-7.87,0-13.88-1.04-18.05-3.12c-4.17-2.08-8.68-6.13-13.54-12.15l-35.06-43.74c-9.02-11.11-13.54-22.44-13.54-34.02
				C-1124.36-1271.62-1119.84-1281.92-1110.82-1293.02z"/>
			<path class="st1" d="M-924.77-1317.32v-1.39c0-6.71,1.16-11.46,3.47-14.23c2.31-2.78,6.82-4.97,13.54-6.59l14.23-3.12v-14.23
				c0-23.14,5.49-39.97,16.49-50.5c10.99-10.53,27.82-15.79,50.5-15.79c5.55,0,11.46,0.35,17.7,1.04
				c7.64,0.93,12.78,3.07,15.45,6.42c2.66,3.36,3.99,8.97,3.99,16.83v3.47c0,7.64-1.16,12.38-3.47,14.23
				c-2.32,1.85-7.64,2.32-15.97,1.39c-7.41-0.46-12.15-0.69-14.23-0.69c-16.89,0-25.34,6.59-25.34,19.79v18.05h36.1
				c7.86,0,13.07,1.27,15.62,3.82c2.54,2.55,3.82,7.76,3.82,15.62v3.82c0,7.87-1.27,13.08-3.82,15.62
				c-2.55,2.55-7.76,3.82-15.62,3.82h-36.1v111.42c0,7.87-1.27,13.08-3.82,15.62c-2.55,2.55-7.76,3.82-15.62,3.82h-6.25
				c-7.87,0-13.08-1.27-15.62-3.82c-2.55-2.54-3.82-7.75-3.82-15.62v-111.42h-13.88c-6.94,0-11.57-1.16-13.88-3.47
				C-923.62-1305.75-924.77-1310.38-924.77-1317.32z"/>
			<path class="st1" d="M-629.04-1287.12v66.3c0,18.98-6.13,33.03-18.4,42.17c-12.27,9.14-31.24,13.71-56.93,13.71
				c-25.69,0-44.66-4.45-56.93-13.36c-12.27-8.91-18.4-22.74-18.4-41.48c0-36.1,23.48-54.15,70.46-54.15h35.06v-13.19
				c0-7.86-2.78-13.36-8.33-16.49c-5.55-3.12-14.81-4.69-27.77-4.69c-9.72,0-19.79,0.69-30.2,2.08c-7.64,1.16-12.79,0.64-15.45-1.56
				c-2.66-2.2-3.99-7.12-3.99-14.75v-1.39c0-7.4,1.21-12.5,3.64-15.27c2.43-2.78,7.46-4.74,15.1-5.9
				c10.87-1.16,20.25-1.74,28.12-1.74c28.46,0,49.58,4.75,63.35,14.23C-635.93-1323.1-629.04-1307.95-629.04-1287.12z
				 M-674.16-1223.25v-16.66h-35.75c-16.43,0-24.64,6.37-24.64,19.09c0.69,7.41,3.24,12.32,7.64,14.75
				c4.39,2.43,11.68,3.53,21.87,3.3c10.41,0.23,17.99-1.09,22.74-3.99C-677.58-1209.66-674.86-1215.15-674.16-1223.25z"/>
			<path class="st1" d="M-456.53-1287.12v66.3c0,18.98-6.13,33.03-18.4,42.17c-12.27,9.14-31.24,13.71-56.93,13.71
				c-25.69,0-44.66-4.45-56.93-13.36c-12.27-8.91-18.4-22.74-18.4-41.48c0-36.1,23.48-54.15,70.46-54.15h35.06v-13.19
				c0-7.86-2.78-13.36-8.33-16.49c-5.55-3.12-14.81-4.69-27.77-4.69c-9.72,0-19.79,0.69-30.2,2.08c-7.64,1.16-12.79,0.64-15.45-1.56
				c-2.66-2.2-3.99-7.12-3.99-14.75v-1.39c0-7.4,1.21-12.5,3.64-15.27c2.43-2.78,7.46-4.74,15.1-5.9
				c10.87-1.16,20.25-1.74,28.12-1.74c28.46,0,49.58,4.75,63.35,14.23C-463.42-1323.1-456.53-1307.95-456.53-1287.12z
				 M-501.65-1223.25v-16.66h-35.75c-16.43,0-24.64,6.37-24.64,19.09c0.69,7.41,3.24,12.32,7.64,14.75
				c4.39,2.43,11.68,3.53,21.87,3.3c10.41,0.23,17.99-1.09,22.74-3.99C-505.07-1209.66-502.35-1215.15-501.65-1223.25z"/>
		</g>
	</g>
	<g>
		<path class="st0" d="M-940.03-1329.76c-4.92,6.59-12.78,10.85-21.64,10.85c-9.43,0-17.73-4.83-22.56-12.16
			c-0.37,2.23-0.56,4.84-0.56,7.85v134.67c0,7.87,1.27,13.08,3.82,15.62c2.54,2.55,7.75,3.82,15.62,3.82h6.24
			c7.87,0,13.07-1.27,15.62-3.82c2.55-2.54,3.82-7.75,3.82-15.62v-134.67C-939.67-1325.66-939.79-1327.84-940.03-1329.76z"/>
	</g>
	<g>
		<g>
			<path d="M-1549.42-1104.3c0,8.95-3.73,14.4-11.19,16.33l10.86,16.33c1.05,1.55,1.44,2.6,1.16,3.15
				c-0.28,0.55-1.38,0.83-3.32,0.83h-3.15c-1.88,0-3.32-0.28-4.31-0.83c-1-0.55-2.04-1.63-3.15-3.23l-10.11-15.42h-7.54v14.67
				c0,1.88-0.32,3.15-0.95,3.81c-0.64,0.66-1.92,1-3.85,1h-1.49c-1.93,0-3.22-0.33-3.85-1c-0.64-0.66-0.95-1.93-0.95-3.81v-39.13
				c0-3.48,0.79-6.01,2.36-7.58s4.1-2.36,7.58-2.36h13.59C-1555.53-1121.54-1549.42-1115.79-1549.42-1104.3z M-1567.74-1111.18
				h-9.95c-1.66,0-2.49,0.83-2.49,2.49v11.19h12.43c4.81,0,7.21-2.26,7.21-6.8c0-2.38-0.57-4.12-1.7-5.22
				C-1563.36-1110.63-1565.2-1111.18-1567.74-1111.18z"/>
			<path d="M-1505.32-1092.2c0,0.39-0.06,1.46-0.17,3.23c-0.22,1.88-0.68,3.11-1.37,3.69c-0.69,0.58-2.03,0.87-4.02,0.87h-21.06
				v1.24c0,2.16,0.86,3.74,2.57,4.77c1.71,1.02,4.48,1.53,8.29,1.53c2.82,0,6.16-0.39,10.03-1.16c1.77-0.39,2.94-0.3,3.52,0.25
				c0.58,0.55,0.87,1.8,0.87,3.73v0.91c0,1.82-0.28,3.07-0.83,3.73c-0.55,0.66-1.74,1.22-3.57,1.66c-2.54,0.72-5.91,1.08-10.11,1.08
				c-7.46,0-12.93-1.45-16.41-4.35s-5.22-7.5-5.22-13.8v-6.63c0-12.43,6.44-18.65,19.31-18.65
				C-1511.37-1110.1-1505.32-1104.13-1505.32-1092.2z M-1533.75-1117.89l3.23-4.81c0.88-1.33,1.81-2.22,2.78-2.69
				c0.97-0.47,2.33-0.71,4.1-0.71c1.77,0,3.14,0.24,4.1,0.71c0.97,0.47,1.89,1.37,2.78,2.69l3.23,4.81
				c0.77,1.22,1.05,2.03,0.83,2.45c-0.22,0.41-1.05,0.62-2.49,0.62h-0.91c-1.49,0-2.61-0.21-3.36-0.62
				c-0.75-0.42-1.48-1.23-2.2-2.45l-0.5-0.75c-1-1.38-1.99-1.38-2.98,0l-0.5,0.75c-0.72,1.22-1.45,2.03-2.2,2.45
				c-0.75,0.41-1.87,0.62-3.36,0.62h-0.91c-1.44,0-2.27-0.21-2.49-0.62C-1534.8-1115.86-1534.52-1116.68-1533.75-1117.89z
				 M-1531.93-1094.43v1.24h16.33v-1.24c0-4.2-2.74-6.3-8.21-6.3C-1529.22-1100.73-1531.93-1098.63-1531.93-1094.43z"/>
			<path d="M-1488.49-1104.55l5.47,25.03c0.33,1.44,0.73,2.38,1.2,2.82c0.47,0.44,1.23,0.66,2.28,0.66c1.05,0,1.81-0.22,2.28-0.66
				c0.47-0.44,0.87-1.38,1.2-2.82l5.47-25.03c0.44-1.82,1.04-3.04,1.78-3.65c0.75-0.61,2.03-0.91,3.85-0.91h1.82
				c1.88,0,3.05,0.3,3.52,0.91c0.47,0.61,0.51,1.82,0.12,3.65l-6.05,26.28c-0.94,3.98-2.16,6.8-3.65,8.46
				c-1.77,2.1-5.22,3.15-10.36,3.15c-5.14,0-8.62-1.02-10.45-3.07c-1.44-1.77-2.62-4.61-3.56-8.54l-6.05-26.28
				c-0.39-1.82-0.35-3.04,0.12-3.65c0.47-0.61,1.64-0.91,3.52-0.91h1.82c1.82,0,3.11,0.3,3.85,0.91
				C-1489.53-1107.59-1488.93-1106.37-1488.49-1104.55z"/>
			<path d="M-1416.62-1092.2c0,0.39-0.06,1.46-0.17,3.23c-0.22,1.88-0.68,3.11-1.37,3.69c-0.69,0.58-2.03,0.87-4.02,0.87h-21.06
				v1.24c0,2.16,0.86,3.74,2.57,4.77c1.71,1.02,4.48,1.53,8.29,1.53c2.82,0,6.16-0.39,10.03-1.16c1.77-0.39,2.94-0.3,3.52,0.25
				c0.58,0.55,0.87,1.8,0.87,3.73v0.91c0,1.82-0.28,3.07-0.83,3.73c-0.55,0.66-1.74,1.22-3.57,1.66c-2.54,0.72-5.91,1.08-10.11,1.08
				c-7.46,0-12.93-1.45-16.41-4.35s-5.22-7.5-5.22-13.8v-6.63c0-12.43,6.44-18.65,19.31-18.65
				C-1422.67-1110.1-1416.62-1104.13-1416.62-1092.2z M-1443.23-1094.43v1.24h16.33v-1.24c0-4.2-2.74-6.3-8.21-6.3
				C-1440.52-1100.73-1443.23-1098.63-1443.23-1094.43z"/>
			<path d="M-1408.41-1103.97v-0.5c0-1.88,0.3-3.12,0.91-3.73c0.61-0.61,1.85-0.91,3.73-0.91h18.24c3.81,0,6.49,0.72,8.04,2.16
				c1.55,1.44,2.32,3.9,2.32,7.38c0,2.6-0.47,4.78-1.41,6.55c-0.94,1.66-2.93,3.26-5.97,4.81l-16.99,8.62
				c-1,0.5-1.49,0.97-1.49,1.41c0,0.33,0.11,0.54,0.33,0.62s0.69,0.12,1.41,0.12h19.48c1.88,0,3.12,0.3,3.73,0.91
				c0.61,0.61,0.91,1.85,0.91,3.73v0.5c0,1.88-0.3,3.12-0.91,3.73c-0.61,0.61-1.85,0.91-3.73,0.91h-20.72
				c-3.59,0-6.22-0.76-7.88-2.28c-1.66-1.52-2.49-3.94-2.49-7.25c0-2.6,0.55-4.78,1.66-6.55c1.11-1.77,3.01-3.37,5.72-4.81
				l16.99-8.62c0.99-0.55,1.49-1.02,1.49-1.41c0-0.5-0.58-0.75-1.74-0.75h-16.99c-1.88,0-3.12-0.3-3.73-0.91
				C-1408.11-1100.84-1408.41-1102.09-1408.41-1103.97z"/>
			<path d="M-1367.22-1055.8l-0.33-0.08c-0.5-0.11-0.84-0.28-1.04-0.5c-0.19-0.22-0.35-0.61-0.46-1.16
				c-0.11-1.22-0.17-2.68-0.17-4.39c0-11.33,2.18-16.99,6.55-16.99c1.38,0,2.47,0.48,3.27,1.45c0.8,0.97,1.2,2.28,1.2,3.94
				c0,1.88-0.8,4.59-2.4,8.12c-1.71,3.76-3.23,6.66-4.56,8.7C-1365.64-1055.89-1366.33-1055.58-1367.22-1055.8z"/>
			<path d="M-1320.38-1104.55l5.47,25.03c0.33,1.44,0.73,2.38,1.2,2.82c0.47,0.44,1.23,0.66,2.28,0.66c1.05,0,1.81-0.22,2.28-0.66
				c0.47-0.44,0.87-1.38,1.2-2.82l5.47-25.03c0.44-1.82,1.04-3.04,1.78-3.65c0.75-0.61,2.03-0.91,3.85-0.91h1.82
				c1.88,0,3.05,0.3,3.52,0.91c0.47,0.61,0.51,1.82,0.12,3.65l-6.05,26.28c-0.94,3.98-2.16,6.8-3.65,8.46
				c-1.77,2.1-5.22,3.15-10.36,3.15c-5.14,0-8.62-1.02-10.45-3.07c-1.44-1.77-2.62-4.61-3.56-8.54l-6.05-26.28
				c-0.39-1.82-0.35-3.04,0.12-3.65c0.47-0.61,1.64-0.91,3.52-0.91h1.82c1.82,0,3.11,0.3,3.85,0.91
				C-1321.42-1107.59-1320.82-1106.37-1320.38-1104.55z"/>
			<path d="M-1274.38-1116.98c-1.27,1.27-2.79,1.91-4.56,1.91c-1.77,0-3.29-0.63-4.56-1.91c-1.27-1.27-1.91-2.79-1.91-4.56
				c0-1.77,0.63-3.29,1.91-4.56c1.27-1.27,2.79-1.91,4.56-1.91c1.77,0,3.29,0.64,4.56,1.91c1.27,1.27,1.91,2.79,1.91,4.56
				C-1272.47-1119.77-1273.1-1118.25-1274.38-1116.98z M-1284.32-1072.3v-32.16c0-1.88,0.3-3.12,0.91-3.73
				c0.61-0.61,1.85-0.91,3.73-0.91h1.49c1.88,0,3.12,0.3,3.73,0.91c0.61,0.61,0.91,1.85,0.91,3.73v32.16c0,1.88-0.3,3.12-0.91,3.73
				c-0.61,0.61-1.85,0.91-3.73,0.91h-1.49c-1.88,0-3.12-0.3-3.73-0.91C-1284.02-1069.18-1284.32-1070.42-1284.32-1072.3z"/>
			<path d="M-1254.23-1104.55l5.47,25.03c0.33,1.44,0.73,2.38,1.2,2.82c0.47,0.44,1.23,0.66,2.28,0.66c1.05,0,1.81-0.22,2.28-0.66
				c0.47-0.44,0.87-1.38,1.2-2.82l5.47-25.03c0.44-1.82,1.04-3.04,1.78-3.65c0.75-0.61,2.03-0.91,3.85-0.91h1.82
				c1.88,0,3.05,0.3,3.52,0.91c0.47,0.61,0.51,1.82,0.12,3.65l-6.05,26.28c-0.94,3.98-2.16,6.8-3.65,8.46
				c-1.77,2.1-5.22,3.15-10.36,3.15c-5.14,0-8.62-1.02-10.45-3.07c-1.44-1.77-2.62-4.61-3.56-8.54l-6.05-26.28
				c-0.39-1.82-0.35-3.04,0.12-3.65c0.47-0.61,1.64-0.91,3.52-0.91h1.82c1.82,0,3.11,0.3,3.85,0.91
				C-1255.27-1107.59-1254.68-1106.37-1254.23-1104.55z"/>
			<path d="M-1182.36-1092.2c0,0.39-0.06,1.46-0.17,3.23c-0.22,1.88-0.68,3.11-1.37,3.69c-0.69,0.58-2.03,0.87-4.02,0.87h-21.06
				v1.24c0,2.16,0.86,3.74,2.57,4.77c1.71,1.02,4.48,1.53,8.29,1.53c2.82,0,6.16-0.39,10.03-1.16c1.77-0.39,2.94-0.3,3.52,0.25
				c0.58,0.55,0.87,1.8,0.87,3.73v0.91c0,1.82-0.28,3.07-0.83,3.73c-0.55,0.66-1.74,1.22-3.57,1.66c-2.54,0.72-5.91,1.08-10.11,1.08
				c-7.46,0-12.93-1.45-16.41-4.35s-5.22-7.5-5.22-13.8v-6.63c0-12.43,6.44-18.65,19.31-18.65
				C-1188.41-1110.1-1182.36-1104.13-1182.36-1092.2z M-1208.97-1094.43v1.24h16.33v-1.24c0-4.2-2.74-6.3-8.21-6.3
				C-1206.27-1100.73-1208.97-1098.63-1208.97-1094.43z"/>
			<path d="M-1174.16-1103.97v-0.5c0-1.88,0.3-3.12,0.91-3.73c0.61-0.61,1.85-0.91,3.73-0.91h18.24c3.81,0,6.49,0.72,8.04,2.16
				c1.55,1.44,2.32,3.9,2.32,7.38c0,2.6-0.47,4.78-1.41,6.55c-0.94,1.66-2.93,3.26-5.97,4.81l-16.99,8.62
				c-1,0.5-1.49,0.97-1.49,1.41c0,0.33,0.11,0.54,0.33,0.62s0.69,0.12,1.41,0.12h19.48c1.88,0,3.12,0.3,3.73,0.91
				c0.61,0.61,0.91,1.85,0.91,3.73v0.5c0,1.88-0.3,3.12-0.91,3.73c-0.61,0.61-1.85,0.91-3.73,0.91h-20.72
				c-3.59,0-6.22-0.76-7.88-2.28c-1.66-1.52-2.49-3.94-2.49-7.25c0-2.6,0.55-4.78,1.66-6.55c1.11-1.77,3.01-3.37,5.72-4.81
				l16.99-8.62c0.99-0.55,1.49-1.02,1.49-1.41c0-0.5-0.58-0.75-1.74-0.75h-16.99c-1.88,0-3.12-0.3-3.73-0.91
				C-1173.85-1100.84-1174.16-1102.09-1174.16-1103.97z"/>
			<path d="M-1132.96-1055.8l-0.33-0.08c-0.5-0.11-0.84-0.28-1.04-0.5c-0.19-0.22-0.35-0.61-0.46-1.16
				c-0.11-1.22-0.17-2.68-0.17-4.39c0-11.33,2.18-16.99,6.55-16.99c1.38,0,2.47,0.48,3.27,1.45c0.8,0.97,1.2,2.28,1.2,3.94
				c0,1.88-0.8,4.59-2.4,8.12c-1.71,3.76-3.23,6.66-4.56,8.7C-1131.38-1055.89-1132.07-1055.58-1132.96-1055.8z"/>
			<path d="M-1096.49-1055.72v-36.22c0-5.91,1.73-10.42,5.18-13.51c3.45-3.09,8.3-4.64,14.55-4.64c13.21,0,19.81,6.05,19.81,18.15
				v6.63c0,6.02-1.49,10.64-4.48,13.84c-2.98,3.21-7.29,4.81-12.93,4.81c-5.25,0-9.04-1.58-11.36-4.73v15.67
				c0,1.88-0.3,3.12-0.91,3.73c-0.61,0.61-1.85,0.91-3.73,0.91h-1.49c-1.88,0-3.12-0.3-3.73-0.91
				C-1096.18-1052.6-1096.49-1053.84-1096.49-1055.72z M-1067.8-1085.07v-6.63c0-3.09-0.62-5.24-1.87-6.42
				c-1.24-1.19-3.58-1.78-7-1.78c-3.37,0-5.72,0.62-7.05,1.87c-1.33,1.24-1.99,3.36-1.99,6.34v6.63c0,2.98,0.66,5.1,1.99,6.34
				c1.33,1.24,3.67,1.87,7.05,1.87c3.37,0,5.69-0.61,6.96-1.82C-1068.44-1079.9-1067.8-1082.03-1067.8-1085.07z"/>
			<path d="M-1015.75-1095.84v15.83c0,4.53-1.46,7.89-4.39,10.07c-2.93,2.18-7.46,3.27-13.59,3.27c-6.13,0-10.67-1.06-13.59-3.19
				c-2.93-2.13-4.39-5.43-4.39-9.91c0-8.62,5.61-12.93,16.83-12.93h8.37v-3.15c0-1.88-0.66-3.19-1.99-3.94s-3.54-1.12-6.63-1.12
				c-2.32,0-4.72,0.17-7.21,0.5c-1.82,0.28-3.05,0.15-3.69-0.37c-0.64-0.52-0.95-1.7-0.95-3.52v-0.33c0-1.77,0.29-2.98,0.87-3.65
				s1.78-1.13,3.61-1.41c2.6-0.28,4.84-0.41,6.71-0.41c6.8,0,11.84,1.13,15.13,3.4
				C-1017.39-1104.44-1015.75-1100.82-1015.75-1095.84z M-1026.52-1080.59v-3.98h-8.54c-3.92,0-5.89,1.52-5.89,4.56
				c0.17,1.77,0.77,2.94,1.82,3.52c1.05,0.58,2.79,0.84,5.22,0.79c2.49,0.06,4.3-0.26,5.43-0.95
				C-1027.34-1077.34-1026.69-1078.66-1026.52-1080.59z"/>
			<path d="M-997.59-1094.19v21.88c0,1.88-0.3,3.12-0.91,3.73c-0.61,0.61-1.85,0.91-3.73,0.91h-1.58c-1.88,0-3.12-0.3-3.73-0.91
				c-0.61-0.61-0.91-1.85-0.91-3.73v-22.71c0-4.92,1.46-8.66,4.39-11.23c2.93-2.57,7.21-3.85,12.85-3.85h0.91
				c1.6,0,2.71,0.39,3.32,1.16c0.61,0.77,0.91,2.16,0.91,4.15v0.91c0,1.77-0.28,2.9-0.83,3.4c-0.55,0.5-1.69,0.69-3.4,0.58h-0.91
				c-2.43,0-4.1,0.41-5.01,1.24S-997.59-1096.34-997.59-1094.19z"/>
			<path d="M-983.17-1103.06v-0.33c0-1.66,0.28-2.82,0.83-3.48c0.55-0.66,1.63-1.16,3.23-1.49l3.4-0.75l1-6.55
				c0.22-1.71,0.66-2.85,1.33-3.4c0.66-0.55,1.88-0.83,3.65-0.83h0.5c1.77,0,2.93,0.28,3.48,0.83c0.55,0.55,0.83,1.71,0.83,3.48
				v6.47h9.45c1.88,0,3.12,0.3,3.73,0.91c0.61,0.61,0.91,1.85,0.91,3.73v0.91c0,1.88-0.3,3.12-0.91,3.73
				c-0.61,0.61-1.85,0.91-3.73,0.91h-9.45v16.41c0,3.7,1.74,5.55,5.22,5.55c2.21,0,4.14-0.17,5.8-0.5c1.88-0.33,3.11-0.29,3.69,0.12
				c0.58,0.41,0.87,1.51,0.87,3.27v0.91c0,1.88-0.32,3.23-0.95,4.06c-0.64,0.83-1.84,1.44-3.61,1.82c-1.38,0.33-3.32,0.5-5.8,0.5
				c-10.67,0-16-5.28-16-15.83v-16.33h-3.32c-1.66,0-2.76-0.28-3.32-0.83C-982.89-1100.29-983.17-1101.4-983.17-1103.06z"/>
			<path d="M-910.22-1095.84v15.83c0,4.53-1.46,7.89-4.39,10.07c-2.93,2.18-7.46,3.27-13.59,3.27c-6.13,0-10.67-1.06-13.59-3.19
				c-2.93-2.13-4.39-5.43-4.39-9.91c0-8.62,5.61-12.93,16.83-12.93h8.37v-3.15c0-1.88-0.66-3.19-1.99-3.94s-3.54-1.12-6.63-1.12
				c-2.32,0-4.72,0.17-7.21,0.5c-1.82,0.28-3.05,0.15-3.69-0.37c-0.64-0.52-0.95-1.7-0.95-3.52v-0.33c0-1.77,0.29-2.98,0.87-3.65
				s1.78-1.13,3.61-1.41c2.6-0.28,4.84-0.41,6.71-0.41c6.8,0,11.84,1.13,15.13,3.4C-911.87-1104.44-910.22-1100.82-910.22-1095.84z
				 M-921-1080.59v-3.98h-8.54c-3.92,0-5.89,1.52-5.89,4.56c0.17,1.77,0.77,2.94,1.82,3.52c1.05,0.58,2.79,0.84,5.22,0.79
				c2.49,0.06,4.3-0.26,5.43-0.95C-921.81-1077.34-921.16-1078.66-921-1080.59z"/>
			<path d="M-866.21-1095.01v0.5c0,10.28-6.19,15.42-18.57,15.42c-3.26,0-5.4,0.14-6.42,0.41c-1.02,0.28-1.53,0.86-1.53,1.74
				c0,0.77,0.51,1.29,1.53,1.53c1.02,0.25,3.16,0.37,6.42,0.37c7.57,0,12.77,0.91,15.58,2.74c2.82,1.82,4.23,5.08,4.23,9.78
				c0,4.75-1.41,8.09-4.23,10.03c-2.93,1.93-8.12,2.9-15.58,2.9c-7.57,0-12.82-0.88-15.75-2.65c-2.82-1.77-4.23-4.56-4.23-8.37
				c0-3.59,1.38-6.22,4.14-7.88c-1.93-1.33-2.9-3.37-2.9-6.13c0-3.7,2.13-6.27,6.38-7.71c-4.26-2.43-6.38-6.49-6.38-12.19v-0.5
				c0-4.75,1.64-8.46,4.93-11.11c3.29-2.65,7.89-3.98,13.8-3.98c2.71,0,5.14,0.36,7.29,1.08l4.81-3.48
				c1.33-0.99,2.43-1.48,3.32-1.45c0.88,0.03,1.91,0.62,3.07,1.78l0.25,0.25c1.21,1.22,1.84,2.18,1.87,2.9
				c0.03,0.72-0.51,1.71-1.62,2.98l-2.98,3.32C-867.06-1100.68-866.21-1098.11-866.21-1095.01z M-884.77-1065.84
				c-2.54,0-4.84-0.08-6.88-0.25c-1.49,0.66-2.24,1.93-2.24,3.81c0,1.49,0.55,2.46,1.66,2.9c1.21,0.44,3.7,0.66,7.46,0.66
				c2.98,0,5.19-0.17,6.63-0.5c1.55-0.39,2.32-1.41,2.32-3.07c0-1.6-0.58-2.6-1.74-2.98
				C-878.67-1065.64-881.07-1065.84-884.77-1065.84z M-877.06-1094.52v-0.5c0-1.99-0.59-3.44-1.78-4.35
				c-1.19-0.91-3.16-1.37-5.93-1.37c-2.82,0-4.84,0.46-6.05,1.37c-1.22,0.91-1.82,2.36-1.82,4.35v0.5c0,2.16,0.61,3.7,1.82,4.64
				c1.21,0.94,3.23,1.41,6.05,1.41s4.81-0.47,5.97-1.41C-877.64-1090.81-877.06-1092.36-877.06-1094.52z"/>
			<path d="M-822.69-1092.2c0,0.39-0.06,1.46-0.17,3.23c-0.22,1.88-0.68,3.11-1.37,3.69c-0.69,0.58-2.03,0.87-4.02,0.87h-21.06v1.24
				c0,2.16,0.86,3.74,2.57,4.77c1.71,1.02,4.48,1.53,8.29,1.53c2.82,0,6.16-0.39,10.03-1.16c1.77-0.39,2.94-0.3,3.52,0.25
				c0.58,0.55,0.87,1.8,0.87,3.73v0.91c0,1.82-0.28,3.07-0.83,3.73c-0.55,0.66-1.74,1.22-3.57,1.66c-2.54,0.72-5.91,1.08-10.11,1.08
				c-7.46,0-12.93-1.45-16.41-4.35s-5.22-7.5-5.22-13.8v-6.63c0-12.43,6.44-18.65,19.31-18.65
				C-828.74-1110.1-822.69-1104.13-822.69-1092.2z M-849.3-1094.43v1.24h16.33v-1.24c0-4.2-2.74-6.3-8.21-6.3
				C-846.59-1100.73-849.3-1098.63-849.3-1094.43z"/>
			<path d="M-814.48-1103.97v-0.5c0-1.88,0.3-3.12,0.91-3.73c0.61-0.61,1.85-0.91,3.73-0.91h18.24c3.81,0,6.49,0.72,8.04,2.16
				c1.55,1.44,2.32,3.9,2.32,7.38c0,2.6-0.47,4.78-1.41,6.55c-0.94,1.66-2.93,3.26-5.97,4.81l-16.99,8.62
				c-1,0.5-1.49,0.97-1.49,1.41c0,0.33,0.11,0.54,0.33,0.62s0.69,0.12,1.41,0.12h19.48c1.88,0,3.12,0.3,3.73,0.91
				c0.61,0.61,0.91,1.85,0.91,3.73v0.5c0,1.88-0.3,3.12-0.91,3.73c-0.61,0.61-1.85,0.91-3.73,0.91h-20.72
				c-3.59,0-6.22-0.76-7.88-2.28c-1.66-1.52-2.49-3.94-2.49-7.25c0-2.6,0.55-4.78,1.66-6.55c1.11-1.77,3.01-3.37,5.72-4.81
				l16.99-8.62c0.99-0.55,1.49-1.02,1.49-1.41c0-0.5-0.58-0.75-1.74-0.75h-16.99c-1.88,0-3.12-0.3-3.73-0.91
				C-814.18-1100.84-814.48-1102.09-814.48-1103.97z"/>
			<path d="M-756.12-1080.18v-40.87c0-1.88,0.3-3.12,0.91-3.73c0.61-0.61,1.85-0.91,3.73-0.91h1.49c1.88,0,3.12,0.3,3.73,0.91
				c0.61,0.61,0.91,1.85,0.91,3.73v38.46c0,2.1,0.28,3.55,0.83,4.35c0.55,0.8,1.49,1.2,2.82,1.2h0.42c1.16,0,1.92,0.24,2.28,0.71
				c0.36,0.47,0.54,1.51,0.54,3.11v1.58c0,1.66-0.19,2.79-0.58,3.4c-0.39,0.61-1.13,1.02-2.24,1.24c-1,0.11-1.82,0.17-2.49,0.17
				c-3.92,0-6.96-1.13-9.12-3.4C-755.04-1072.49-756.12-1075.81-756.12-1080.18z"/>
			<path d="M-734.49-1114.25v-9.37c0-1.6,0.26-2.67,0.79-3.19c0.52-0.53,1.59-0.79,3.19-0.79h1.16c1.6,0,2.67,0.26,3.19,0.79
				c0.52,0.53,0.79,1.59,0.79,3.19v9.37c0,1.55-0.26,2.6-0.79,3.15c-0.53,0.55-1.59,0.83-3.19,0.83h-1.16
				c-1.6,0-2.67-0.28-3.19-0.83C-734.22-1111.65-734.49-1112.7-734.49-1114.25z"/>
			<path d="M-679.36-1106.62l9.29,34.32c0.5,1.88,0.51,3.12,0.04,3.73c-0.47,0.61-1.67,0.91-3.61,0.91h-1.58
				c-1.94,0-3.3-0.3-4.1-0.91c-0.8-0.61-1.45-1.85-1.95-3.73l-2.16-8.46h-21.88l-2.16,8.46c-0.5,1.88-1.15,3.12-1.95,3.73
				c-0.8,0.61-2.17,0.91-4.1,0.91h-1.58c-1.94,0-3.14-0.3-3.61-0.91c-0.47-0.61-0.46-1.85,0.04-3.73l9.28-34.32
				c0.88-3.2,1.63-5.61,2.24-7.21c0.55-1.55,1.41-3.07,2.57-4.56c1.99-2.65,5.39-3.98,10.2-3.98c4.81,0,8.21,1.33,10.2,3.98
				c1.16,1.49,2.02,3.01,2.57,4.56C-680.99-1112.23-680.25-1109.82-679.36-1106.62z M-698.68-1106.12l-4.06,15.42h16.66l-3.98-15.42
				c-0.77-2.71-1.35-4.42-1.74-5.14c-0.44-0.77-1.3-1.16-2.57-1.16c-1.27,0-2.13,0.39-2.57,1.16
				C-697.32-1110.54-697.9-1108.83-698.68-1106.12z"/>
			<path d="M-666.6-1103.06v-0.33c0-1.6,0.28-2.74,0.83-3.4c0.55-0.66,1.63-1.19,3.23-1.58l3.4-0.75v-3.4
				c0-5.53,1.31-9.55,3.94-12.06c2.62-2.51,6.64-3.77,12.06-3.77c1.33,0,2.74,0.08,4.23,0.25c1.82,0.22,3.05,0.73,3.69,1.53
				c0.63,0.8,0.95,2.14,0.95,4.02v0.83c0,1.82-0.28,2.96-0.83,3.4c-0.55,0.44-1.82,0.55-3.81,0.33c-1.77-0.11-2.9-0.17-3.4-0.17
				c-4.04,0-6.05,1.58-6.05,4.72v4.31h8.62c1.88,0,3.12,0.3,3.73,0.91c0.61,0.61,0.91,1.85,0.91,3.73v0.91
				c0,1.88-0.3,3.12-0.91,3.73c-0.61,0.61-1.85,0.91-3.73,0.91h-8.62v26.61c0,1.88-0.3,3.12-0.91,3.73
				c-0.61,0.61-1.85,0.91-3.73,0.91h-1.49c-1.88,0-3.12-0.3-3.73-0.91c-0.61-0.61-0.91-1.85-0.91-3.73v-26.61h-3.32
				c-1.66,0-2.76-0.28-3.32-0.83C-666.32-1100.29-666.6-1101.4-666.6-1103.06z"/>
			<path d="M-619.02-1094.19v21.88c0,1.88-0.3,3.12-0.91,3.73c-0.61,0.61-1.85,0.91-3.73,0.91h-1.58c-1.88,0-3.12-0.3-3.73-0.91
				c-0.61-0.61-0.91-1.85-0.91-3.73v-22.71c0-4.92,1.46-8.66,4.39-11.23c2.93-2.57,7.21-3.85,12.85-3.85h0.91
				c1.6,0,2.71,0.39,3.32,1.16c0.61,0.77,0.91,2.16,0.91,4.15v0.91c0,1.77-0.28,2.9-0.83,3.4c-0.55,0.5-1.69,0.69-3.4,0.58h-0.91
				c-2.43,0-4.1,0.41-5.01,1.24S-619.02-1096.34-619.02-1094.19z"/>
			<path d="M-590.92-1116.98c-1.27,1.27-2.79,1.91-4.56,1.91c-1.77,0-3.29-0.63-4.56-1.91c-1.27-1.27-1.91-2.79-1.91-4.56
				c0-1.77,0.63-3.29,1.91-4.56c1.27-1.27,2.79-1.91,4.56-1.91c1.77,0,3.29,0.64,4.56,1.91c1.27,1.27,1.91,2.79,1.91,4.56
				C-589.01-1119.77-589.64-1118.25-590.92-1116.98z M-600.86-1072.3v-32.16c0-1.88,0.3-3.12,0.91-3.73
				c0.61-0.61,1.85-0.91,3.73-0.91h1.49c1.88,0,3.12,0.3,3.73,0.91c0.61,0.61,0.91,1.85,0.91,3.73v32.16c0,1.88-0.3,3.12-0.91,3.73
				c-0.61,0.61-1.85,0.91-3.73,0.91h-1.49c-1.88,0-3.12-0.3-3.73-0.91C-600.56-1069.18-600.86-1070.42-600.86-1072.3z"/>
			<path d="M-542.42-1091.95v36.22c0,1.88-0.3,3.12-0.91,3.73c-0.61,0.61-1.85,0.91-3.73,0.91h-1.49c-1.88,0-3.12-0.3-3.73-0.91
				c-0.61-0.61-0.91-1.85-0.91-3.73v-15.67c-2.32,3.15-6.11,4.73-11.36,4.73c-5.64,0-9.95-1.6-12.93-4.81
				c-2.98-3.2-4.48-7.82-4.48-13.84v-6.63c0-12.1,6.6-18.15,19.81-18.15c6.24,0,11.09,1.55,14.55,4.64
				C-544.15-1102.36-542.42-1097.86-542.42-1091.95z M-571.1-1091.7v6.63c0,3.04,0.63,5.17,1.91,6.38c1.27,1.22,3.59,1.82,6.96,1.82
				c3.37,0,5.72-0.62,7.05-1.87c1.33-1.24,1.99-3.36,1.99-6.34v-6.63c0-2.98-0.66-5.1-1.99-6.34c-1.33-1.24-3.68-1.87-7.05-1.87
				c-3.43,0-5.76,0.59-7,1.78C-570.48-1096.93-571.1-1094.79-571.1-1091.7z"/>
			<path d="M-523.44-1104.46v21.06c0,2.43,0.58,4.13,1.74,5.1c1.16,0.97,3.26,1.45,6.3,1.45c3.04,0,5.11-0.47,6.22-1.41
				c1.1-0.94,1.66-2.65,1.66-5.14v-21.06c0-1.88,0.3-3.12,0.91-3.73c0.61-0.61,1.85-0.91,3.73-0.91h1.58c1.88,0,3.12,0.3,3.73,0.91
				c0.61,0.61,0.91,1.85,0.91,3.73v21.06c0,5.69-1.52,9.91-4.56,12.64s-7.76,4.1-14.17,4.1c-6.25,0-10.96-1.42-14.13-4.27
				c-3.18-2.85-4.77-7-4.77-12.48v-21.06c0-1.88,0.3-3.12,0.91-3.73c0.61-0.61,1.85-0.91,3.73-0.91h1.58c1.88,0,3.12,0.3,3.73,0.91
				C-523.74-1107.59-523.44-1106.34-523.44-1104.46z"/>
			<path d="M-451.9-1092.2c0,0.39-0.06,1.46-0.17,3.23c-0.22,1.88-0.68,3.11-1.37,3.69c-0.69,0.58-2.03,0.87-4.02,0.87h-21.06v1.24
				c0,2.16,0.86,3.74,2.57,4.77c1.71,1.02,4.48,1.53,8.29,1.53c2.82,0,6.16-0.39,10.03-1.16c1.77-0.39,2.94-0.3,3.52,0.25
				c0.58,0.55,0.87,1.8,0.87,3.73v0.91c0,1.82-0.28,3.07-0.83,3.73c-0.55,0.66-1.74,1.22-3.57,1.66c-2.54,0.72-5.91,1.08-10.11,1.08
				c-7.46,0-12.93-1.45-16.41-4.35s-5.22-7.5-5.22-13.8v-6.63c0-12.43,6.44-18.65,19.31-18.65
				C-457.95-1110.1-451.9-1104.13-451.9-1092.2z M-478.51-1094.43v1.24h16.33v-1.24c0-4.2-2.74-6.3-8.21-6.3
				C-475.81-1100.73-478.51-1098.63-478.51-1094.43z"/>
		</g>
	</g>
	<g>
		<g>
			<path class="st0" d="M-1450.67-1290.91c0,4.83,2.29,9.13,5.83,11.87l3.08-24.56c0.05-0.37,0.09-0.73,0.14-1.08
				C-1446.94-1302.38-1450.67-1297.08-1450.67-1290.91z M-1428.23-1303.94c0,0.11,0.01,0.22,0.02,0.34l1.61,24.64
				c3.6-2.74,5.93-7.08,5.93-11.95C-1420.67-1296.49-1423.71-1301.35-1428.23-1303.94z M-1560.67-1290.91
				c0,5.43,2.89,10.2,7.22,12.83l1.61-25.52c0.02-0.34,0.04-0.68,0.07-1.01C-1557.01-1302.28-1560.67-1297.03-1560.67-1290.91z
				 M-1538.34-1304c0.02,0.13,0.03,0.27,0.05,0.4l3.01,23.51c2.84-2.73,4.61-6.57,4.61-10.82
				C-1530.67-1296.54-1533.76-1301.43-1538.34-1304z M-1382.85-1185.23l-8.85-121.14c-1.11-15.48-4.98-26.73-11.62-33.74
				c-6.64-7-16.87-10.51-30.7-10.51c-12.72,0-22.36,3.51-28.9,10.51c-6.55,7.01-10.56,18.26-12.03,33.74l-10.24,97.63
				c-0.37,4.06-0.83,6.6-1.38,7.61c-0.55,1.02-1.66,1.52-3.32,1.52c-1.66,0-2.76-0.5-3.32-1.52c-0.55-1.01-1.01-3.55-1.38-7.61
				l-10.23-97.63c-1.66-15.48-5.72-26.73-12.17-33.74c-6.46-7-16.14-10.51-29.04-10.51c-13.65,0-23.79,3.51-30.43,10.51
				c-6.63,7.01-10.51,18.26-11.61,33.74l-8.85,121.14c-0.37,6.46,0.46,10.75,2.49,12.86c2.02,2.13,6.17,3.19,12.44,3.19h5.53
				c6.46,0,10.83-1.11,13.14-3.32c2.3-2.22,3.64-6.46,4.01-12.73l5.05-80.08c-10.7-3.59-18.41-13.69-18.41-25.6
				c0-14.92,12.09-27,27-27c14.92,0,27,12.08,27,27c0,10.56-6.06,19.71-14.9,24.14l8.28,64.67c1.44,10.52,4.25,18.33,8.44,23.4
				c4.2-3.26,9.47-5.21,15.17-5.21h24.03c5.87,0,11.27,2.06,15.53,5.5c3.82-5.05,6.37-12.95,7.63-23.69l8.03-64.05
				c-9.54-4.17-16.21-13.69-16.21-24.76c0-14.92,12.09-27,27-27c14.92,0,27,12.08,27,27c0,11.4-7.07,21.16-17.07,25.11l5.27,80.57
				c0.37,6.27,1.71,10.51,4.01,12.73c2.31,2.21,6.69,3.32,13.14,3.32h5.53c6.27,0,10.42-1.06,12.45-3.19
				C-1383.31-1174.48-1382.48-1178.77-1382.85-1185.23z M-1470.69-1172.06c-0.18-0.15-0.37-0.3-0.56-0.44
				c-0.09-0.08-0.19-0.15-0.28-0.21c-0.07-0.06-0.15-0.12-0.24-0.18c-0.08-0.06-0.16-0.11-0.24-0.17c-0.33-0.22-0.66-0.44-1-0.64
				c-0.04-0.03-0.09-0.06-0.14-0.09c-0.34-0.21-0.69-0.4-1.05-0.59c-0.01,0-0.01,0-0.01,0c-0.07-0.04-0.15-0.08-0.22-0.11
				c-0.1-0.06-0.2-0.11-0.3-0.15c-0.18-0.09-0.37-0.18-0.56-0.26c-0.03-0.02-0.06-0.03-0.09-0.04c-0.17-0.08-0.34-0.15-0.52-0.22
				c-0.17-0.07-0.34-0.14-0.52-0.2c-0.08-0.04-0.17-0.07-0.26-0.1c-0.1-0.04-0.2-0.08-0.3-0.11c-0.13-0.05-0.26-0.09-0.4-0.13
				c-0.21-0.07-0.42-0.13-0.63-0.19c-0.1-0.03-0.2-0.06-0.3-0.08c-0.2-0.06-0.41-0.11-0.62-0.15c-0.22-0.06-0.45-0.11-0.68-0.15
				c-0.18-0.04-0.36-0.07-0.55-0.1c-0.07-0.01-0.13-0.03-0.2-0.03c-0.11-0.02-0.22-0.04-0.33-0.05c-0.04-0.01-0.09-0.02-0.13-0.02
				c-0.02-0.01-0.04-0.01-0.06-0.01c-0.21-0.03-0.43-0.05-0.65-0.07c-0.2-0.02-0.41-0.04-0.62-0.05c-0.09-0.01-0.17-0.02-0.26-0.02
				c-0.06,0-0.12-0.01-0.18-0.01c-0.3-0.01-0.6-0.02-0.91-0.02h-11.39c-0.35,0-0.7,0.01-1.04,0.03c-0.19,0.01-0.37,0.02-0.56,0.04
				c-0.09,0-0.17,0.01-0.26,0.02c-0.07,0-0.13,0.01-0.21,0.02c-0.12,0.01-0.23,0.02-0.35,0.04c-0.09,0.01-0.19,0.02-0.29,0.04
				c-0.15,0.01-0.31,0.04-0.46,0.06c-0.19,0.03-0.38,0.06-0.57,0.1c-0.17,0.03-0.34,0.07-0.5,0.1c-0.34,0.07-0.67,0.15-1,0.24
				c-0.56,0.15-1.11,0.32-1.64,0.52c-0.24,0.09-0.48,0.18-0.71,0.28c-0.01,0-0.01,0.01-0.01,0.01c-0.07,0.02-0.14,0.05-0.21,0.08
				c-0.07,0.02-0.14,0.05-0.2,0.09c-0.25,0.1-0.49,0.21-0.73,0.33c-0.08,0.03-0.15,0.07-0.23,0.11c-0.12,0.06-0.25,0.12-0.37,0.19
				c-0.06,0.02-0.11,0.05-0.17,0.09c-0.14,0.07-0.28,0.15-0.42,0.23c-0.02,0-0.04,0.02-0.07,0.04c-0.24,0.13-0.47,0.27-0.7,0.41
				c-0.27,0.17-0.54,0.35-0.8,0.53c-0.43,0.3-0.85,0.61-1.26,0.94c4.75,1.96,10.67,2.93,17.76,2.93c8.05,0,14.46-0.95,19.24-2.85
				C-1470.66-1172.04-1470.68-1172.05-1470.69-1172.06z"/>
		</g>
	</g>
	<path class="st2" d="M-1530.67-1290.91c0,4.25-1.77,8.09-4.61,10.82c-2.7,2.59-6.35,4.18-10.39,4.18c-2.85,0-5.51-0.79-7.78-2.17
		c-4.33-2.63-7.22-7.4-7.22-12.83c0-6.12,3.66-11.37,8.9-13.7c1.86-0.84,3.93-1.3,6.1-1.3c2.67,0,5.17,0.69,7.33,1.91
		C-1533.76-1301.43-1530.67-1296.54-1530.67-1290.91z"/>
	<path class="st1" d="M-1530.67-1290.91c0,4.25-1.77,8.09-4.61,10.82c-2.7,2.59-6.35,4.18-10.39,4.18c-2.85,0-5.51-0.79-7.78-2.17
		c-4.33-2.63-7.22-7.4-7.22-12.83c0-6.12,3.66-11.37,8.9-13.7c1.86-0.84,3.93-1.3,6.1-1.3c2.67,0,5.17,0.69,7.33,1.91
		C-1533.76-1301.43-1530.67-1296.54-1530.67-1290.91z"/>
	<path class="st2" d="M-1420.67-1290.91c0,4.87-2.33,9.21-5.93,11.95c-2.52,1.91-5.66,3.05-9.07,3.05c-3.45,0-6.63-1.17-9.17-3.13
		c-3.54-2.74-5.83-7.04-5.83-11.87c0-6.17,3.73-11.47,9.05-13.77c1.83-0.79,3.84-1.23,5.95-1.23c2.71,0,5.25,0.72,7.44,1.97
		C-1423.71-1301.35-1420.67-1296.49-1420.67-1290.91z"/>
	<path class="st1" d="M-1420.67-1290.91c0,4.87-2.33,9.21-5.93,11.95c-2.52,1.91-5.66,3.05-9.07,3.05c-3.45,0-6.63-1.17-9.17-3.13
		c-3.54-2.74-5.83-7.04-5.83-11.87c0-6.17,3.73-11.47,9.05-13.77c1.83-0.79,3.84-1.23,5.95-1.23c2.71,0,5.25,0.72,7.44,1.97
		C-1423.71-1301.35-1420.67-1296.49-1420.67-1290.91z"/>
	<path class="st2" d="M-1452.83-1157.91v5.07c0,3.81-3.12,6.93-6.93,6.93h-59.81c-3.81,0-6.93-3.12-6.93-6.93v-5.07h11.4
		c-0.05,0.51-0.07,1.02-0.07,1.53c0,1.86,1.52,3.38,3.38,3.38h45.19c0.93,0,1.78-0.38,2.39-0.99c0.61-0.61,0.99-1.46,0.99-2.39
		c0-0.51-0.02-1.02-0.07-1.53H-1452.83z"/>
	<path class="st2" d="M-1462.12-1178.41c-0.65,0.85-1.33,1.62-2.05,2.31c-1.65,1.65-3.81,3.01-6.48,4.07
		c-3.5-2.89-7.98-4.62-12.85-4.62h-11.39c-4.82,0-9.27,1.71-12.76,4.54c-2.78-1.13-5.15-2.6-7.13-4.4
		c-0.72-0.66-1.42-1.39-2.07-2.19c4.2-3.26,9.47-5.21,15.17-5.21h24.03C-1471.78-1183.91-1466.38-1181.85-1462.12-1178.41z"/>
	<path class="st2" d="M-1507.65-1172.11c-0.55,0.44-1.07,0.91-1.56,1.41c-3.34,3.34-5.53,7.82-5.89,12.79h-11.4v-1.19
		c0-7.95,3.79-15.05,9.65-19.6c0.65,0.8,1.35,1.53,2.07,2.19C-1512.8-1174.71-1510.43-1173.24-1507.65-1172.11z"/>
	<path class="st2" d="M-1452.83-1159.1v1.19h-10.46c-0.42-5.66-3.2-10.7-7.36-14.12c2.67-1.06,4.83-2.42,6.48-4.07
		c0.72-0.69,1.4-1.46,2.05-2.31C-1456.46-1173.86-1452.83-1166.89-1452.83-1159.1z"/>
	<path class="st2" d="M-1463.22-1156.38c0,0.93-0.38,1.78-0.99,2.39c-0.61,0.61-1.46,0.99-2.39,0.99h-45.19
		c-1.86,0-3.38-1.52-3.38-3.38c0-0.51,0.02-1.02,0.07-1.53c0.36-4.97,2.55-9.45,5.89-12.79c3.67-3.67,8.75-5.95,14.32-5.95h11.39
		c10.64,0,19.43,8.3,20.21,18.74C-1463.24-1157.4-1463.22-1156.89-1463.22-1156.38z"/>
	<path class="st1" d="M-1463.22-1156.38c0,0.93-0.38,1.78-0.99,2.39c-0.61,0.61-1.46,0.99-2.39,0.99h-45.19
		c-1.86,0-3.38-1.52-3.38-3.38c0-0.51,0.02-1.02,0.07-1.53c0.36-4.97,2.55-9.45,5.89-12.79c3.67-3.67,8.75-5.95,14.32-5.95h11.39
		c10.64,0,19.43,8.3,20.21,18.74C-1463.24-1157.4-1463.22-1156.89-1463.22-1156.38z"/>
	<circle class="st1" cx="-961.67" cy="-1345.91" r="15"/>
</g>
<g>
	<g>
		<g>
			<path class="st0" d="M1087.39,910.96c0,14.58,6.91,27.56,17.6,35.84l9.3-74.15c0.15-1.12,0.27-2.2,0.42-3.26
				C1098.65,876.33,1087.39,892.33,1087.39,910.96z M1155.14,871.62c0,0.33,0.03,0.66,0.06,1.03l4.86,74.39
				c10.87-8.27,17.9-21.37,17.9-36.08C1177.96,894.11,1168.78,879.44,1155.14,871.62z M755.3,910.96c0,16.39,8.72,30.79,21.8,38.73
				l4.86-77.05c0.06-1.03,0.12-2.05,0.21-3.05C766.35,876.63,755.3,892.48,755.3,910.96z M822.71,871.44
				c0.06,0.39,0.09,0.82,0.15,1.21l9.09,70.98c8.57-8.24,13.92-19.83,13.92-32.67C845.87,893.96,836.54,879.2,822.71,871.44z
				 M1292.14,1230.01l-26.72-365.72c-3.35-46.73-15.03-80.7-35.08-101.86c-20.05-21.13-50.93-31.73-92.68-31.73
				c-38.4,0-67.5,10.6-87.25,31.73c-19.77,21.16-31.88,55.13-36.32,101.86l-30.91,294.75c-1.12,12.26-2.51,19.93-4.17,22.97
				c-1.66,3.08-5.01,4.59-10.02,4.59c-5.01,0-8.33-1.51-10.02-4.59c-1.66-3.05-3.05-10.72-4.17-22.97l-30.88-294.75
				c-5.01-46.73-17.27-80.7-36.74-101.86c-19.5-21.13-48.73-31.73-87.67-31.73c-41.21,0-71.82,10.6-91.87,31.73
				c-20.02,21.16-31.73,55.13-35.05,101.86l-26.72,365.72c-1.12,19.5,1.39,32.45,7.52,38.82c6.1,6.43,18.63,9.63,37.56,9.63h16.7
				c19.5,0,32.7-3.35,39.67-10.02c6.94-6.7,10.99-19.5,12.11-38.43l15.25-241.76c-32.3-10.84-55.58-41.33-55.58-77.29
				c0-45.04,36.5-81.51,81.51-81.51c45.04,0,81.51,36.47,81.51,81.51c0,31.88-18.3,59.5-44.98,72.88l25,195.24
				c4.35,31.76,12.83,55.34,25.48,70.65c12.68-9.84,28.59-15.73,45.8-15.73h72.55c17.72,0,34.02,6.22,46.88,16.6
				c11.53-15.25,19.23-39.1,23.04-71.52l24.24-193.37c-28.8-12.59-48.94-41.33-48.94-74.75c0-45.04,36.5-81.51,81.51-81.51
				c45.04,0,81.51,36.47,81.51,81.51c0,34.42-21.34,63.88-51.53,75.81l15.91,243.24c1.12,18.93,5.16,31.73,12.11,38.43
				c6.97,6.67,20.2,10.02,39.67,10.02h16.7c18.93,0,31.46-3.2,37.59-9.63C1290.75,1262.46,1293.26,1249.51,1292.14,1230.01z
				 M1026.95,1269.77c-0.54-0.45-1.12-0.91-1.69-1.33c-0.27-0.24-0.57-0.45-0.85-0.63c-0.21-0.18-0.45-0.36-0.72-0.54
				c-0.24-0.18-0.48-0.33-0.72-0.51c-1-0.66-1.99-1.33-3.02-1.93c-0.12-0.09-0.27-0.18-0.42-0.27c-1.03-0.63-2.08-1.21-3.17-1.78
				c-0.03,0-0.03,0-0.03,0c-0.21-0.12-0.45-0.24-0.66-0.33c-0.3-0.18-0.6-0.33-0.91-0.45c-0.54-0.27-1.12-0.54-1.69-0.79
				c-0.09-0.06-0.18-0.09-0.27-0.12c-0.51-0.24-1.03-0.45-1.57-0.66c-0.51-0.21-1.03-0.42-1.57-0.6c-0.24-0.12-0.51-0.21-0.78-0.3
				c-0.3-0.12-0.6-0.24-0.91-0.33c-0.39-0.15-0.78-0.27-1.21-0.39c-0.63-0.21-1.27-0.39-1.9-0.57c-0.3-0.09-0.6-0.18-0.91-0.24
				c-0.6-0.18-1.24-0.33-1.87-0.45c-0.66-0.18-1.36-0.33-2.05-0.45c-0.54-0.12-1.09-0.21-1.66-0.3c-0.21-0.03-0.39-0.09-0.6-0.09
				c-0.33-0.06-0.66-0.12-1-0.15c-0.12-0.03-0.27-0.06-0.39-0.06c-0.06-0.03-0.12-0.03-0.18-0.03c-0.63-0.09-1.3-0.15-1.96-0.21
				c-0.6-0.06-1.24-0.12-1.87-0.15c-0.27-0.03-0.51-0.06-0.78-0.06c-0.18,0-0.36-0.03-0.54-0.03c-0.91-0.03-1.81-0.06-2.75-0.06
				h-34.39c-1.06,0-2.11,0.03-3.14,0.09c-0.57,0.03-1.12,0.06-1.69,0.12c-0.27,0-0.51,0.03-0.78,0.06c-0.21,0-0.39,0.03-0.63,0.06
				c-0.36,0.03-0.69,0.06-1.06,0.12c-0.27,0.03-0.57,0.06-0.88,0.12c-0.45,0.03-0.94,0.12-1.39,0.18c-0.57,0.09-1.15,0.18-1.72,0.3
				c-0.51,0.09-1.03,0.21-1.51,0.3c-1.03,0.21-2.02,0.45-3.02,0.72c-1.69,0.45-3.35,0.97-4.95,1.57c-0.72,0.27-1.45,0.54-2.14,0.85
				c-0.03,0-0.03,0.03-0.03,0.03c-0.21,0.06-0.42,0.15-0.63,0.24c-0.21,0.06-0.42,0.15-0.6,0.27c-0.75,0.3-1.48,0.63-2.2,1
				c-0.24,0.09-0.45,0.21-0.69,0.33c-0.36,0.18-0.75,0.36-1.12,0.57c-0.18,0.06-0.33,0.15-0.51,0.27c-0.42,0.21-0.85,0.45-1.27,0.69
				c-0.06,0-0.12,0.06-0.21,0.12c-0.72,0.39-1.42,0.82-2.11,1.24c-0.81,0.51-1.63,1.06-2.42,1.6c-1.3,0.91-2.57,1.84-3.8,2.84
				c14.34,5.92,32.21,8.85,53.62,8.85c24.3,0,43.66-2.87,58.09-8.6C1027.04,1269.83,1026.98,1269.8,1026.95,1269.77z"/>
		</g>
	</g>
	<path class="st1" d="M845.87,910.96c0,12.83-5.34,24.42-13.92,32.67c-8.15,7.82-19.17,12.62-31.37,12.62
		c-8.6,0-16.63-2.38-23.49-6.55c-13.07-7.94-21.8-22.34-21.8-38.73c0-18.48,11.05-34.33,26.87-41.36
		c5.62-2.54,11.86-3.92,18.42-3.92c8.06,0,15.61,2.08,22.13,5.77C836.54,879.2,845.87,893.96,845.87,910.96z"/>
	<path class="st1" d="M1177.96,910.96c0,14.7-7.03,27.81-17.9,36.08c-7.61,5.77-17.09,9.21-27.38,9.21
		c-10.42,0-20.02-3.53-27.68-9.45c-10.69-8.27-17.6-21.25-17.6-35.84c0-18.63,11.26-34.63,27.32-41.57
		c5.53-2.39,11.59-3.71,17.96-3.71c8.18,0,15.85,2.17,22.46,5.95C1168.78,879.44,1177.96,894.11,1177.96,910.96z"/>
	<path class="st1" d="M1049.5,1317.1c0,2.81-1.15,5.37-2.99,7.22c-1.84,1.84-4.41,2.99-7.22,2.99H902.87
		c-5.61,0-10.2-4.59-10.2-10.2c0-1.54,0.06-3.08,0.21-4.62c1.09-15,7.7-28.53,17.78-38.61c11.08-11.08,26.42-17.96,43.23-17.96
		h34.39c32.12,0,58.66,25.06,61.01,56.58C1049.44,1314.03,1049.5,1315.56,1049.5,1317.1z"/>
</g>
<g>
	<g>
		<g>
			<path class="st1" d="M-1246.3,1006.74v66.3c0,18.98-6.13,33.03-18.4,42.17c-12.27,9.14-31.24,13.71-56.93,13.71
				c-25.69,0-44.66-4.45-56.93-13.36c-12.27-8.91-18.4-22.74-18.4-41.48c0-36.1,23.48-54.15,70.46-54.15h35.06v-13.19
				c0-7.86-2.78-13.36-8.33-16.49c-5.55-3.12-14.81-4.69-27.77-4.69c-9.72,0-19.79,0.69-30.2,2.08c-7.64,1.16-12.79,0.64-15.45-1.56
				c-2.66-2.2-3.99-7.12-3.99-14.75v-1.39c0-7.4,1.21-12.5,3.64-15.27c2.43-2.78,7.46-4.74,15.1-5.9
				c10.87-1.16,20.25-1.74,28.12-1.74c28.46,0,49.58,4.75,63.35,14.23C-1253.19,970.76-1246.3,985.92-1246.3,1006.74z
				 M-1291.42,1070.61v-16.66h-35.75c-16.43,0-24.64,6.37-24.64,19.09c0.69,7.41,3.24,12.32,7.64,14.75
				c4.39,2.43,11.68,3.53,21.87,3.3c10.41,0.23,17.99-1.09,22.74-3.99C-1294.84,1084.21-1292.12,1078.71-1291.42,1070.61z"/>
			<path class="st1" d="M-1212.28,1105.32v-204.1c0-7.86,1.27-13.07,3.82-15.62c2.54-2.54,7.75-3.82,15.62-3.82h6.25
				c7.86,0,13.07,1.27,15.62,3.82c2.54,2.55,3.82,7.76,3.82,15.62v204.1c0,7.87-1.27,13.08-3.82,15.62
				c-2.55,2.55-7.76,3.82-15.62,3.82h-6.25c-7.87,0-13.08-1.27-15.62-3.82C-1211.01,1118.4-1212.28,1113.19-1212.28,1105.32z
				 M-1141.82,1000.84l28.12-34.71c4.86-6.02,9.37-10.01,13.54-11.98c4.17-1.96,10.18-2.95,18.05-2.95h17.36
				c7.86,0,12.2,0.99,13.02,2.95c0.81,1.97-1.21,5.96-6.07,11.98l-45.47,55.54c-4.4,4.4-6.6,8.22-6.6,11.45
				c0,2.55,2.08,6.25,6.25,11.11l53.11,65.26c4.86,6.02,6.82,10.07,5.9,12.15c-0.93,2.08-5.33,3.12-13.19,3.12h-17.36
				c-7.87,0-13.88-1.04-18.05-3.12c-4.17-2.08-8.68-6.13-13.54-12.15l-35.06-43.74c-9.02-11.11-13.54-22.44-13.54-34.02
				C-1155.36,1022.25-1150.84,1011.95-1141.82,1000.84z"/>
			<path class="st1" d="M-955.77,976.54v-1.39c0-6.71,1.16-11.46,3.47-14.23c2.31-2.78,6.82-4.97,13.54-6.59l14.23-3.12v-14.23
				c0-23.14,5.49-39.97,16.49-50.5c10.99-10.53,27.82-15.79,50.5-15.79c5.55,0,11.46,0.35,17.7,1.04
				c7.64,0.93,12.78,3.07,15.45,6.42c2.66,3.36,3.99,8.97,3.99,16.83v3.47c0,7.64-1.16,12.38-3.47,14.23
				c-2.32,1.85-7.64,2.32-15.97,1.39c-7.41-0.46-12.15-0.69-14.23-0.69c-16.89,0-25.34,6.59-25.34,19.79v18.05h36.1
				c7.86,0,13.07,1.27,15.62,3.82c2.54,2.55,3.82,7.76,3.82,15.62v3.82c0,7.87-1.27,13.08-3.82,15.62
				c-2.55,2.55-7.76,3.82-15.62,3.82h-36.1v111.42c0,7.87-1.27,13.08-3.82,15.62c-2.55,2.55-7.76,3.82-15.62,3.82h-6.25
				c-7.87,0-13.08-1.27-15.62-3.82c-2.55-2.54-3.82-7.75-3.82-15.62V993.9h-13.88c-6.94,0-11.57-1.16-13.88-3.47
				C-954.62,988.12-955.77,983.49-955.77,976.54z"/>
			<path class="st1" d="M-660.04,1006.74v66.3c0,18.98-6.13,33.03-18.4,42.17c-12.27,9.14-31.24,13.71-56.93,13.71
				c-25.69,0-44.66-4.45-56.93-13.36c-12.27-8.91-18.4-22.74-18.4-41.48c0-36.1,23.48-54.15,70.46-54.15h35.06v-13.19
				c0-7.86-2.78-13.36-8.33-16.49c-5.55-3.12-14.81-4.69-27.77-4.69c-9.72,0-19.79,0.69-30.2,2.08c-7.64,1.16-12.79,0.64-15.45-1.56
				c-2.66-2.2-3.99-7.12-3.99-14.75v-1.39c0-7.4,1.21-12.5,3.64-15.27c2.43-2.78,7.46-4.74,15.1-5.9
				c10.87-1.16,20.25-1.74,28.12-1.74c28.46,0,49.58,4.75,63.35,14.23C-666.93,970.76-660.04,985.92-660.04,1006.74z
				 M-705.16,1070.61v-16.66h-35.75c-16.43,0-24.64,6.37-24.64,19.09c0.69,7.41,3.24,12.32,7.64,14.75
				c4.39,2.43,11.68,3.53,21.87,3.3c10.41,0.23,17.99-1.09,22.74-3.99C-708.58,1084.21-705.86,1078.71-705.16,1070.61z"/>
			<path class="st1" d="M-487.53,1006.74v66.3c0,18.98-6.13,33.03-18.4,42.17c-12.27,9.14-31.24,13.71-56.93,13.71
				c-25.69,0-44.66-4.45-56.93-13.36c-12.27-8.91-18.4-22.74-18.4-41.48c0-36.1,23.48-54.15,70.46-54.15h35.06v-13.19
				c0-7.86-2.78-13.36-8.33-16.49c-5.55-3.12-14.81-4.69-27.77-4.69c-9.72,0-19.79,0.69-30.2,2.08c-7.64,1.16-12.79,0.64-15.45-1.56
				c-2.66-2.2-3.99-7.12-3.99-14.75v-1.39c0-7.4,1.21-12.5,3.64-15.27c2.43-2.78,7.46-4.74,15.1-5.9
				c10.87-1.16,20.25-1.74,28.12-1.74c28.46,0,49.58,4.75,63.35,14.23C-494.42,970.76-487.53,985.92-487.53,1006.74z
				 M-532.65,1070.61v-16.66h-35.75c-16.43,0-24.64,6.37-24.64,19.09c0.69,7.41,3.24,12.32,7.64,14.75
				c4.39,2.43,11.68,3.53,21.87,3.3c10.41,0.23,17.99-1.09,22.74-3.99C-536.07,1084.21-533.35,1078.71-532.65,1070.61z"/>
		</g>
	</g>
	<g>
		<path class="st0" d="M-971.03,964.11c-4.92,6.59-12.78,10.85-21.64,10.85c-9.43,0-17.73-4.83-22.56-12.16
			c-0.37,2.23-0.56,4.84-0.56,7.85v134.67c0,7.87,1.27,13.08,3.82,15.62c2.54,2.55,7.75,3.82,15.62,3.82h6.24
			c7.87,0,13.07-1.27,15.62-3.82c2.55-2.54,3.82-7.75,3.82-15.62V970.65C-970.67,968.21-970.79,966.03-971.03,964.11z"/>
	</g>
	<g>
		<g>
			<path class="st0" d="M-1481.67,1002.96c0,4.83,2.29,9.13,5.83,11.87l3.08-24.56c0.05-0.37,0.09-0.73,0.14-1.08
				C-1477.94,991.49-1481.67,996.79-1481.67,1002.96z M-1459.23,989.93c0,0.11,0.01,0.22,0.02,0.34l1.61,24.64
				c3.6-2.74,5.93-7.08,5.93-11.95C-1451.67,997.38-1454.71,992.52-1459.23,989.93z M-1591.67,1002.96c0,5.43,2.89,10.2,7.22,12.83
				l1.61-25.52c0.02-0.34,0.04-0.68,0.07-1.01C-1588.01,991.59-1591.67,996.84-1591.67,1002.96z M-1569.34,989.87
				c0.02,0.13,0.03,0.27,0.05,0.4l3.01,23.51c2.84-2.73,4.61-6.57,4.61-10.82C-1561.67,997.33-1564.76,992.44-1569.34,989.87z
				 M-1413.85,1108.64l-8.85-121.14c-1.11-15.48-4.98-26.73-11.62-33.74c-6.64-7-16.87-10.51-30.7-10.51
				c-12.72,0-22.36,3.51-28.9,10.51c-6.55,7.01-10.56,18.26-12.03,33.74l-10.24,97.63c-0.37,4.06-0.83,6.6-1.38,7.61
				c-0.55,1.02-1.66,1.52-3.32,1.52c-1.66,0-2.76-0.5-3.32-1.52c-0.55-1.01-1.01-3.55-1.38-7.61l-10.23-97.63
				c-1.66-15.48-5.72-26.73-12.17-33.74c-6.46-7-16.14-10.51-29.04-10.51c-13.65,0-23.79,3.51-30.43,10.51
				c-6.63,7.01-10.51,18.26-11.61,33.74l-8.85,121.14c-0.37,6.46,0.46,10.75,2.49,12.86c2.02,2.13,6.17,3.19,12.44,3.19h5.53
				c6.46,0,10.83-1.11,13.14-3.32c2.3-2.22,3.64-6.46,4.01-12.73l5.05-80.08c-10.7-3.59-18.41-13.69-18.41-25.6
				c0-14.92,12.09-27,27-27c14.92,0,27,12.08,27,27c0,10.56-6.06,19.71-14.9,24.14l8.28,64.67c1.44,10.52,4.25,18.33,8.44,23.4
				c4.2-3.26,9.47-5.21,15.17-5.21h24.03c5.87,0,11.27,2.06,15.53,5.5c3.82-5.05,6.37-12.95,7.63-23.69l8.03-64.05
				c-9.54-4.17-16.21-13.69-16.21-24.76c0-14.92,12.09-27,27-27c14.92,0,27,12.08,27,27c0,11.4-7.07,21.16-17.07,25.11l5.27,80.57
				c0.37,6.27,1.71,10.51,4.01,12.73c2.31,2.21,6.69,3.32,13.14,3.32h5.53c6.27,0,10.42-1.06,12.45-3.19
				C-1414.31,1119.39-1413.48,1115.1-1413.85,1108.64z M-1501.69,1121.81c-0.18-0.15-0.37-0.3-0.56-0.44
				c-0.09-0.08-0.19-0.15-0.28-0.21c-0.07-0.06-0.15-0.12-0.24-0.18c-0.08-0.06-0.16-0.11-0.24-0.17c-0.33-0.22-0.66-0.44-1-0.64
				c-0.04-0.03-0.09-0.06-0.14-0.09c-0.34-0.21-0.69-0.4-1.05-0.59c-0.01,0-0.01,0-0.01,0c-0.07-0.04-0.15-0.08-0.22-0.11
				c-0.1-0.06-0.2-0.11-0.3-0.15c-0.18-0.09-0.37-0.18-0.56-0.26c-0.03-0.02-0.06-0.03-0.09-0.04c-0.17-0.08-0.34-0.15-0.52-0.22
				c-0.17-0.07-0.34-0.14-0.52-0.2c-0.08-0.04-0.17-0.07-0.26-0.1c-0.1-0.04-0.2-0.08-0.3-0.11c-0.13-0.05-0.26-0.09-0.4-0.13
				c-0.21-0.07-0.42-0.13-0.63-0.19c-0.1-0.03-0.2-0.06-0.3-0.08c-0.2-0.06-0.41-0.11-0.62-0.15c-0.22-0.06-0.45-0.11-0.68-0.15
				c-0.18-0.04-0.36-0.07-0.55-0.1c-0.07-0.01-0.13-0.03-0.2-0.03c-0.11-0.02-0.22-0.04-0.33-0.05c-0.04-0.01-0.09-0.02-0.13-0.02
				c-0.02-0.01-0.04-0.01-0.06-0.01c-0.21-0.03-0.43-0.05-0.65-0.07c-0.2-0.02-0.41-0.04-0.62-0.05c-0.09-0.01-0.17-0.02-0.26-0.02
				c-0.06,0-0.12-0.01-0.18-0.01c-0.3-0.01-0.6-0.02-0.91-0.02h-11.39c-0.35,0-0.7,0.01-1.04,0.03c-0.19,0.01-0.37,0.02-0.56,0.04
				c-0.09,0-0.17,0.01-0.26,0.02c-0.07,0-0.13,0.01-0.21,0.02c-0.12,0.01-0.23,0.02-0.35,0.04c-0.09,0.01-0.19,0.02-0.29,0.04
				c-0.15,0.01-0.31,0.04-0.46,0.06c-0.19,0.03-0.38,0.06-0.57,0.1c-0.17,0.03-0.34,0.07-0.5,0.1c-0.34,0.07-0.67,0.15-1,0.24
				c-0.56,0.15-1.11,0.32-1.64,0.52c-0.24,0.09-0.48,0.18-0.71,0.28c-0.01,0-0.01,0.01-0.01,0.01c-0.07,0.02-0.14,0.05-0.21,0.08
				c-0.07,0.02-0.14,0.05-0.2,0.09c-0.25,0.1-0.49,0.21-0.73,0.33c-0.08,0.03-0.15,0.07-0.23,0.11c-0.12,0.06-0.25,0.12-0.37,0.19
				c-0.06,0.02-0.11,0.05-0.17,0.09c-0.14,0.07-0.28,0.15-0.42,0.23c-0.02,0-0.04,0.02-0.07,0.04c-0.24,0.13-0.47,0.27-0.7,0.41
				c-0.27,0.17-0.54,0.35-0.8,0.53c-0.43,0.3-0.85,0.61-1.26,0.94c4.75,1.96,10.67,2.93,17.76,2.93c8.05,0,14.46-0.95,19.24-2.85
				C-1501.66,1121.83-1501.68,1121.82-1501.69,1121.81z"/>
		</g>
	</g>
	<path class="st2" d="M-1561.67,1002.96c0,4.25-1.77,8.09-4.61,10.82c-2.7,2.59-6.35,4.18-10.39,4.18c-2.85,0-5.51-0.79-7.78-2.17
		c-4.33-2.63-7.22-7.4-7.22-12.83c0-6.12,3.66-11.37,8.9-13.7c1.86-0.84,3.93-1.3,6.1-1.3c2.67,0,5.17,0.69,7.33,1.91
		C-1564.76,992.44-1561.67,997.33-1561.67,1002.96z"/>
	<path class="st1" d="M-1561.67,1002.96c0,4.25-1.77,8.09-4.61,10.82c-2.7,2.59-6.35,4.18-10.39,4.18c-2.85,0-5.51-0.79-7.78-2.17
		c-4.33-2.63-7.22-7.4-7.22-12.83c0-6.12,3.66-11.37,8.9-13.7c1.86-0.84,3.93-1.3,6.1-1.3c2.67,0,5.17,0.69,7.33,1.91
		C-1564.76,992.44-1561.67,997.33-1561.67,1002.96z"/>
	<path class="st2" d="M-1451.67,1002.96c0,4.87-2.33,9.21-5.93,11.95c-2.52,1.91-5.66,3.05-9.07,3.05c-3.45,0-6.63-1.17-9.17-3.13
		c-3.54-2.74-5.83-7.04-5.83-11.87c0-6.17,3.73-11.47,9.05-13.77c1.83-0.79,3.84-1.23,5.95-1.23c2.71,0,5.25,0.72,7.44,1.97
		C-1454.71,992.52-1451.67,997.38-1451.67,1002.96z"/>
	<path class="st1" d="M-1451.67,1002.96c0,4.87-2.33,9.21-5.93,11.95c-2.52,1.91-5.66,3.05-9.07,3.05c-3.45,0-6.63-1.17-9.17-3.13
		c-3.54-2.74-5.83-7.04-5.83-11.87c0-6.17,3.73-11.47,9.05-13.77c1.83-0.79,3.84-1.23,5.95-1.23c2.71,0,5.25,0.72,7.44,1.97
		C-1454.71,992.52-1451.67,997.38-1451.67,1002.96z"/>
	<path class="st2" d="M-1483.83,1135.96v5.07c0,3.81-3.12,6.93-6.93,6.93h-59.81c-3.81,0-6.93-3.12-6.93-6.93v-5.07h11.4
		c-0.05,0.51-0.07,1.02-0.07,1.53c0,1.86,1.52,3.38,3.38,3.38h45.19c0.93,0,1.78-0.38,2.39-0.99c0.61-0.61,0.99-1.46,0.99-2.39
		c0-0.51-0.02-1.02-0.07-1.53H-1483.83z"/>
	<path class="st2" d="M-1493.12,1115.46c-0.65,0.85-1.33,1.62-2.05,2.31c-1.65,1.65-3.81,3.01-6.48,4.07
		c-3.5-2.89-7.98-4.62-12.85-4.62h-11.39c-4.82,0-9.27,1.71-12.76,4.54c-2.78-1.13-5.15-2.6-7.13-4.4
		c-0.72-0.66-1.42-1.39-2.07-2.19c4.2-3.26,9.47-5.21,15.17-5.21h24.03C-1502.78,1109.96-1497.38,1112.02-1493.12,1115.46z"/>
	<path class="st2" d="M-1538.65,1121.76c-0.55,0.44-1.07,0.91-1.56,1.41c-3.34,3.34-5.53,7.82-5.89,12.79h-11.4v-1.19
		c0-7.95,3.79-15.05,9.65-19.6c0.65,0.8,1.35,1.53,2.07,2.19C-1543.8,1119.16-1541.43,1120.63-1538.65,1121.76z"/>
	<path class="st2" d="M-1483.83,1134.77v1.19h-10.46c-0.42-5.66-3.2-10.7-7.36-14.12c2.67-1.06,4.83-2.42,6.48-4.07
		c0.72-0.69,1.4-1.46,2.05-2.31C-1487.46,1120.01-1483.83,1126.98-1483.83,1134.77z"/>
	<path class="st2" d="M-1494.22,1137.49c0,0.93-0.38,1.78-0.99,2.39c-0.61,0.61-1.46,0.99-2.39,0.99h-45.19
		c-1.86,0-3.38-1.52-3.38-3.38c0-0.51,0.02-1.02,0.07-1.53c0.36-4.97,2.55-9.45,5.89-12.79c3.67-3.67,8.75-5.95,14.32-5.95h11.39
		c10.64,0,19.43,8.3,20.21,18.74C-1494.24,1136.47-1494.22,1136.98-1494.22,1137.49z"/>
	<path class="st1" d="M-1494.22,1137.49c0,0.93-0.38,1.78-0.99,2.39c-0.61,0.61-1.46,0.99-2.39,0.99h-45.19
		c-1.86,0-3.38-1.52-3.38-3.38c0-0.51,0.02-1.02,0.07-1.53c0.36-4.97,2.55-9.45,5.89-12.79c3.67-3.67,8.75-5.95,14.32-5.95h11.39
		c10.64,0,19.43,8.3,20.21,18.74C-1494.24,1136.47-1494.22,1136.98-1494.22,1137.49z"/>
	<circle class="st1" cx="-992.67" cy="947.95" r="15"/>
</g>
<g>
	<g>
		<g>
			<path d="M5158.39-1368.04c0,14.58,6.91,27.56,17.6,35.84l9.3-74.15c0.15-1.12,0.27-2.2,0.42-3.26
				C5169.65-1402.67,5158.39-1386.67,5158.39-1368.04z M5226.14-1407.38c0,0.33,0.03,0.66,0.06,1.03l4.86,74.39
				c10.87-8.27,17.9-21.37,17.9-36.08C5248.96-1384.89,5239.78-1399.56,5226.14-1407.38z M4826.3-1368.04
				c0,16.39,8.72,30.79,21.8,38.73l4.86-77.05c0.06-1.03,0.12-2.05,0.21-3.05C4837.35-1402.37,4826.3-1386.52,4826.3-1368.04z
				 M4893.71-1407.56c0.06,0.39,0.09,0.82,0.15,1.21l9.09,70.98c8.57-8.24,13.92-19.83,13.92-32.67
				C4916.87-1385.04,4907.54-1399.8,4893.71-1407.56z M5363.14-1048.99l-26.72-365.72c-3.35-46.73-15.03-80.7-35.08-101.86
				c-20.05-21.13-50.93-31.73-92.68-31.73c-38.4,0-67.5,10.6-87.25,31.73c-19.77,21.16-31.88,55.13-36.32,101.86l-30.92,294.75
				c-1.12,12.26-2.51,19.93-4.17,22.97c-1.66,3.08-5.01,4.59-10.02,4.59c-5.01,0-8.33-1.51-10.02-4.59
				c-1.66-3.05-3.05-10.72-4.17-22.97l-30.88-294.75c-5.01-46.73-17.27-80.7-36.74-101.86c-19.5-21.13-48.73-31.73-87.67-31.73
				c-41.21,0-71.82,10.6-91.87,31.73c-20.02,21.16-31.73,55.13-35.05,101.86l-26.72,365.72c-1.12,19.5,1.39,32.45,7.52,38.82
				c6.1,6.43,18.63,9.63,37.56,9.63h16.7c19.5,0,32.7-3.35,39.67-10.02c6.94-6.7,10.99-19.5,12.11-38.43l15.25-241.76
				c-32.3-10.84-55.58-41.33-55.58-77.29c0-45.04,36.5-81.51,81.51-81.51c45.04,0,81.51,36.47,81.51,81.51
				c0,31.88-18.3,59.5-44.98,72.88l25,195.24c4.35,31.76,12.83,55.34,25.48,70.65c12.68-9.84,28.59-15.73,45.8-15.73h72.55
				c17.72,0,34.02,6.22,46.88,16.6c11.53-15.25,19.23-39.1,23.04-71.52l24.24-193.37c-28.8-12.59-48.94-41.33-48.94-74.75
				c0-45.04,36.5-81.51,81.51-81.51c45.04,0,81.51,36.47,81.51,81.51c0,34.42-21.34,63.88-51.53,75.81l15.91,243.24
				c1.12,18.93,5.16,31.73,12.11,38.43c6.97,6.67,20.2,10.02,39.67,10.02h16.7c18.93,0,31.46-3.2,37.59-9.63
				C5361.75-1016.54,5364.26-1029.49,5363.14-1048.99z M5097.95-1009.23c-0.54-0.45-1.12-0.91-1.69-1.33
				c-0.27-0.24-0.57-0.45-0.85-0.63c-0.21-0.18-0.45-0.36-0.72-0.54c-0.24-0.18-0.48-0.33-0.72-0.51c-1-0.66-1.99-1.33-3.02-1.93
				c-0.12-0.09-0.27-0.18-0.42-0.27c-1.03-0.63-2.08-1.21-3.17-1.78c-0.03,0-0.03,0-0.03,0c-0.21-0.12-0.45-0.24-0.66-0.33
				c-0.3-0.18-0.6-0.33-0.91-0.45c-0.54-0.27-1.12-0.54-1.69-0.78c-0.09-0.06-0.18-0.09-0.27-0.12c-0.51-0.24-1.03-0.45-1.57-0.66
				c-0.51-0.21-1.03-0.42-1.57-0.6c-0.24-0.12-0.51-0.21-0.79-0.3c-0.3-0.12-0.6-0.24-0.91-0.33c-0.39-0.15-0.79-0.27-1.21-0.39
				c-0.63-0.21-1.27-0.39-1.9-0.57c-0.3-0.09-0.6-0.18-0.91-0.24c-0.6-0.18-1.24-0.33-1.87-0.45c-0.66-0.18-1.36-0.33-2.05-0.45
				c-0.54-0.12-1.09-0.21-1.66-0.3c-0.21-0.03-0.39-0.09-0.6-0.09c-0.33-0.06-0.66-0.12-1-0.15c-0.12-0.03-0.27-0.06-0.39-0.06
				c-0.06-0.03-0.12-0.03-0.18-0.03c-0.63-0.09-1.3-0.15-1.96-0.21c-0.6-0.06-1.24-0.12-1.87-0.15c-0.27-0.03-0.51-0.06-0.79-0.06
				c-0.18,0-0.36-0.03-0.54-0.03c-0.91-0.03-1.81-0.06-2.75-0.06h-34.39c-1.06,0-2.11,0.03-3.14,0.09
				c-0.57,0.03-1.12,0.06-1.69,0.12c-0.27,0-0.51,0.03-0.79,0.06c-0.21,0-0.39,0.03-0.63,0.06c-0.36,0.03-0.69,0.06-1.06,0.12
				c-0.27,0.03-0.57,0.06-0.88,0.12c-0.45,0.03-0.94,0.12-1.39,0.18c-0.57,0.09-1.15,0.18-1.72,0.3c-0.51,0.09-1.03,0.21-1.51,0.3
				c-1.03,0.21-2.02,0.45-3.02,0.72c-1.69,0.45-3.35,0.97-4.95,1.57c-0.72,0.27-1.45,0.54-2.14,0.85c-0.03,0-0.03,0.03-0.03,0.03
				c-0.21,0.06-0.42,0.15-0.63,0.24c-0.21,0.06-0.42,0.15-0.6,0.27c-0.75,0.3-1.48,0.63-2.2,1c-0.24,0.09-0.45,0.21-0.69,0.33
				c-0.36,0.18-0.75,0.36-1.12,0.57c-0.18,0.06-0.33,0.15-0.51,0.27c-0.42,0.21-0.85,0.45-1.27,0.69c-0.06,0-0.12,0.06-0.21,0.12
				c-0.72,0.39-1.42,0.82-2.11,1.24c-0.81,0.51-1.63,1.06-2.42,1.6c-1.3,0.91-2.57,1.84-3.8,2.84c14.34,5.92,32.21,8.85,53.62,8.85
				c24.3,0,43.66-2.87,58.09-8.6C5098.04-1009.17,5097.98-1009.2,5097.95-1009.23z"/>
		</g>
	</g>
	<path d="M4916.87-1368.04c0,12.83-5.34,24.42-13.92,32.67c-8.15,7.82-19.17,12.62-31.37,12.62c-8.6,0-16.63-2.39-23.49-6.55
		c-13.07-7.94-21.8-22.34-21.8-38.73c0-18.48,11.05-34.33,26.87-41.36c5.62-2.54,11.86-3.92,18.42-3.92
		c8.06,0,15.61,2.08,22.13,5.77C4907.54-1399.8,4916.87-1385.04,4916.87-1368.04z"/>
	<path d="M5248.96-1368.04c0,14.7-7.03,27.81-17.9,36.08c-7.61,5.77-17.09,9.21-27.38,9.21c-10.42,0-20.02-3.53-27.69-9.45
		c-10.69-8.27-17.6-21.25-17.6-35.84c0-18.63,11.26-34.63,27.32-41.57c5.52-2.39,11.59-3.71,17.96-3.71
		c8.18,0,15.85,2.17,22.46,5.95C5239.78-1399.56,5248.96-1384.89,5248.96-1368.04z"/>
	<path d="M5120.5-961.9c0,2.81-1.15,5.37-2.99,7.22c-1.84,1.84-4.41,2.99-7.22,2.99h-136.43c-5.61,0-10.2-4.59-10.2-10.2
		c0-1.54,0.06-3.08,0.21-4.62c1.09-15,7.7-28.53,17.78-38.61c11.08-11.08,26.42-17.96,43.23-17.96h34.39
		c32.12,0,58.66,25.06,61.01,56.58C5120.44-964.97,5120.5-963.44,5120.5-961.9z"/>
</g>
<g>
	<g>
		<g>
			<path d="M2824.7-1273.26v66.3c0,18.98-6.13,33.03-18.4,42.17c-12.27,9.14-31.24,13.71-56.93,13.71
				c-25.69,0-44.66-4.45-56.93-13.36c-12.27-8.91-18.4-22.74-18.4-41.48c0-36.1,23.48-54.15,70.46-54.15h35.06v-13.19
				c0-7.86-2.78-13.36-8.33-16.49c-5.55-3.12-14.81-4.69-27.77-4.69c-9.72,0-19.79,0.69-30.2,2.08c-7.64,1.16-12.79,0.64-15.45-1.56
				c-2.66-2.2-3.99-7.12-3.99-14.75v-1.39c0-7.4,1.21-12.5,3.64-15.27c2.43-2.78,7.46-4.74,15.1-5.9
				c10.87-1.16,20.25-1.74,28.12-1.74c28.46,0,49.58,4.75,63.35,14.23C2817.81-1309.24,2824.7-1294.08,2824.7-1273.26z
				 M2779.58-1209.39v-16.66h-35.75c-16.43,0-24.64,6.37-24.64,19.09c0.69,7.41,3.24,12.32,7.64,14.75
				c4.39,2.43,11.68,3.53,21.87,3.3c10.41,0.23,17.99-1.09,22.74-3.99C2776.16-1195.79,2778.88-1201.29,2779.58-1209.39z"/>
			<path d="M2858.72-1174.68v-204.1c0-7.86,1.27-13.07,3.82-15.62c2.54-2.54,7.75-3.82,15.62-3.82h6.25
				c7.86,0,13.07,1.27,15.62,3.82c2.54,2.55,3.82,7.76,3.82,15.62v204.1c0,7.87-1.27,13.08-3.82,15.62
				c-2.55,2.55-7.76,3.82-15.62,3.82h-6.25c-7.87,0-13.08-1.27-15.62-3.82C2859.99-1161.6,2858.72-1166.81,2858.72-1174.68z
				 M2929.18-1279.16l28.12-34.71c4.86-6.02,9.37-10.01,13.54-11.98c4.17-1.96,10.18-2.95,18.05-2.95h17.36
				c7.86,0,12.2,0.99,13.02,2.95c0.81,1.97-1.21,5.96-6.07,11.98l-45.47,55.54c-4.4,4.4-6.6,8.22-6.6,11.45
				c0,2.55,2.08,6.25,6.25,11.11l53.11,65.26c4.86,6.02,6.82,10.07,5.9,12.15c-0.93,2.08-5.33,3.12-13.19,3.12h-17.36
				c-7.87,0-13.88-1.04-18.05-3.12c-4.17-2.08-8.68-6.13-13.54-12.15l-35.06-43.74c-9.02-11.11-13.54-22.44-13.54-34.02
				C2915.64-1257.75,2920.16-1268.05,2929.18-1279.16z"/>
			<path d="M3115.23-1303.46v-1.39c0-6.71,1.16-11.46,3.47-14.23c2.31-2.78,6.82-4.97,13.54-6.59l14.23-3.12v-14.23
				c0-23.14,5.49-39.97,16.49-50.5c10.99-10.53,27.82-15.79,50.5-15.79c5.55,0,11.46,0.35,17.7,1.04
				c7.64,0.93,12.78,3.07,15.45,6.42c2.66,3.36,3.99,8.97,3.99,16.83v3.47c0,7.64-1.16,12.38-3.47,14.23
				c-2.32,1.85-7.64,2.32-15.97,1.39c-7.41-0.46-12.15-0.69-14.23-0.69c-16.89,0-25.34,6.59-25.34,19.79v18.05h36.1
				c7.86,0,13.07,1.27,15.62,3.82c2.54,2.55,3.82,7.76,3.82,15.62v3.82c0,7.87-1.27,13.08-3.82,15.62
				c-2.55,2.55-7.76,3.82-15.62,3.82h-36.1v111.42c0,7.87-1.27,13.08-3.82,15.62c-2.55,2.55-7.76,3.82-15.62,3.82h-6.25
				c-7.87,0-13.08-1.27-15.62-3.82c-2.55-2.54-3.82-7.75-3.82-15.62v-111.42h-13.88c-6.94,0-11.57-1.16-13.88-3.47
				C3116.38-1291.88,3115.23-1296.51,3115.23-1303.46z"/>
			<path d="M3410.96-1273.26v66.3c0,18.98-6.13,33.03-18.4,42.17c-12.27,9.14-31.24,13.71-56.93,13.71
				c-25.69,0-44.66-4.45-56.93-13.36c-12.27-8.91-18.4-22.74-18.4-41.48c0-36.1,23.48-54.15,70.46-54.15h35.06v-13.19
				c0-7.86-2.78-13.36-8.33-16.49c-5.55-3.12-14.81-4.69-27.77-4.69c-9.72,0-19.79,0.69-30.2,2.08c-7.64,1.16-12.79,0.64-15.45-1.56
				c-2.66-2.2-3.99-7.12-3.99-14.75v-1.39c0-7.4,1.21-12.5,3.64-15.27c2.43-2.78,7.46-4.74,15.1-5.9
				c10.87-1.16,20.25-1.74,28.12-1.74c28.46,0,49.58,4.75,63.35,14.23C3404.07-1309.24,3410.96-1294.08,3410.96-1273.26z
				 M3365.84-1209.39v-16.66h-35.75c-16.43,0-24.64,6.37-24.64,19.09c0.69,7.41,3.24,12.32,7.64,14.75
				c4.39,2.43,11.68,3.53,21.87,3.3c10.41,0.23,17.99-1.09,22.74-3.99C3362.42-1195.79,3365.14-1201.29,3365.84-1209.39z"/>
			<path d="M3583.47-1273.26v66.3c0,18.98-6.13,33.03-18.4,42.17c-12.27,9.14-31.24,13.71-56.93,13.71
				c-25.69,0-44.66-4.45-56.93-13.36c-12.27-8.91-18.4-22.74-18.4-41.48c0-36.1,23.48-54.15,70.46-54.15h35.06v-13.19
				c0-7.86-2.78-13.36-8.33-16.49c-5.55-3.12-14.81-4.69-27.77-4.69c-9.72,0-19.79,0.69-30.2,2.08c-7.64,1.16-12.79,0.64-15.45-1.56
				c-2.66-2.2-3.99-7.12-3.99-14.75v-1.39c0-7.4,1.21-12.5,3.64-15.27c2.43-2.78,7.46-4.74,15.1-5.9
				c10.87-1.16,20.25-1.74,28.12-1.74c28.46,0,49.58,4.75,63.35,14.23C3576.58-1309.24,3583.47-1294.08,3583.47-1273.26z
				 M3538.35-1209.39v-16.66h-35.75c-16.43,0-24.64,6.37-24.64,19.09c0.69,7.41,3.24,12.32,7.64,14.75
				c4.39,2.43,11.68,3.53,21.87,3.3c10.41,0.23,17.99-1.09,22.74-3.99C3534.93-1195.79,3537.65-1201.29,3538.35-1209.39z"/>
		</g>
	</g>
	<g>
		<path d="M3099.97-1315.89c-4.92,6.59-12.78,10.85-21.64,10.85c-9.43,0-17.73-4.83-22.56-12.16c-0.37,2.23-0.56,4.84-0.56,7.85
			v134.67c0,7.87,1.27,13.08,3.82,15.62c2.54,2.55,7.75,3.82,15.62,3.82h6.24c7.87,0,13.07-1.27,15.62-3.82
			c2.55-2.54,3.82-7.75,3.82-15.62v-134.67C3100.33-1311.79,3100.21-1313.97,3099.97-1315.89z"/>
	</g>
	<g>
		<g>
			<path d="M2589.33-1277.04c0,4.83,2.29,9.13,5.83,11.87l3.08-24.56c0.05-0.37,0.09-0.73,0.14-1.08
				C2593.06-1288.51,2589.33-1283.21,2589.33-1277.04z M2611.77-1290.07c0,0.11,0.01,0.22,0.02,0.34l1.61,24.64
				c3.6-2.74,5.93-7.08,5.93-11.95C2619.33-1282.62,2616.29-1287.48,2611.77-1290.07z M2479.33-1277.04c0,5.43,2.89,10.2,7.22,12.83
				l1.61-25.52c0.02-0.34,0.04-0.68,0.07-1.01C2482.99-1288.41,2479.33-1283.16,2479.33-1277.04z M2501.66-1290.13
				c0.02,0.13,0.03,0.27,0.05,0.4l3.01,23.51c2.84-2.73,4.61-6.57,4.61-10.82C2509.33-1282.67,2506.24-1287.56,2501.66-1290.13z
				 M2657.15-1171.36l-8.85-121.14c-1.11-15.48-4.98-26.73-11.62-33.74c-6.64-7-16.87-10.51-30.7-10.51
				c-12.72,0-22.36,3.51-28.9,10.51c-6.55,7.01-10.56,18.26-12.03,33.74l-10.24,97.63c-0.37,4.06-0.83,6.6-1.38,7.61
				c-0.55,1.02-1.66,1.52-3.32,1.52c-1.66,0-2.76-0.5-3.32-1.52c-0.55-1.01-1.01-3.55-1.38-7.61l-10.23-97.63
				c-1.66-15.48-5.72-26.73-12.17-33.74c-6.46-7-16.14-10.51-29.04-10.51c-13.65,0-23.79,3.51-30.43,10.51
				c-6.63,7.01-10.51,18.26-11.61,33.74l-8.85,121.14c-0.37,6.46,0.46,10.75,2.49,12.86c2.02,2.13,6.17,3.19,12.44,3.19h5.53
				c6.46,0,10.83-1.11,13.14-3.32c2.3-2.22,3.64-6.46,4.01-12.73l5.05-80.08c-10.7-3.59-18.41-13.69-18.41-25.6
				c0-14.92,12.09-27,27-27c14.92,0,27,12.08,27,27c0,10.56-6.06,19.71-14.9,24.14l8.28,64.67c1.44,10.52,4.25,18.33,8.44,23.4
				c4.2-3.26,9.47-5.21,15.17-5.21h24.03c5.87,0,11.27,2.06,15.53,5.5c3.82-5.05,6.37-12.95,7.63-23.69l8.03-64.05
				c-9.54-4.17-16.21-13.69-16.21-24.76c0-14.92,12.09-27,27-27c14.92,0,27,12.08,27,27c0,11.4-7.07,21.16-17.07,25.11l5.27,80.57
				c0.37,6.27,1.71,10.51,4.01,12.73c2.31,2.21,6.69,3.32,13.14,3.32h5.53c6.27,0,10.42-1.06,12.45-3.19
				C2656.69-1160.61,2657.52-1164.9,2657.15-1171.36z M2569.31-1158.19c-0.18-0.15-0.37-0.3-0.56-0.44
				c-0.09-0.08-0.19-0.15-0.28-0.21c-0.07-0.06-0.15-0.12-0.24-0.18c-0.08-0.06-0.16-0.11-0.24-0.17c-0.33-0.22-0.66-0.44-1-0.64
				c-0.04-0.03-0.09-0.06-0.14-0.09c-0.34-0.21-0.69-0.4-1.05-0.59c-0.01,0-0.01,0-0.01,0c-0.07-0.04-0.15-0.08-0.22-0.11
				c-0.1-0.06-0.2-0.11-0.3-0.15c-0.18-0.09-0.37-0.18-0.56-0.26c-0.03-0.02-0.06-0.03-0.09-0.04c-0.17-0.08-0.34-0.15-0.52-0.22
				c-0.17-0.07-0.34-0.14-0.52-0.2c-0.08-0.04-0.17-0.07-0.26-0.1c-0.1-0.04-0.2-0.08-0.3-0.11c-0.13-0.05-0.26-0.09-0.4-0.13
				c-0.21-0.07-0.42-0.13-0.63-0.19c-0.1-0.03-0.2-0.06-0.3-0.08c-0.2-0.06-0.41-0.11-0.62-0.15c-0.22-0.06-0.45-0.11-0.68-0.15
				c-0.18-0.04-0.36-0.07-0.55-0.1c-0.07-0.01-0.13-0.03-0.2-0.03c-0.11-0.02-0.22-0.04-0.33-0.05c-0.04-0.01-0.09-0.02-0.13-0.02
				c-0.02-0.01-0.04-0.01-0.06-0.01c-0.21-0.03-0.43-0.05-0.65-0.07c-0.2-0.02-0.41-0.04-0.62-0.05c-0.09-0.01-0.17-0.02-0.26-0.02
				c-0.06,0-0.12-0.01-0.18-0.01c-0.3-0.01-0.6-0.02-0.91-0.02h-11.39c-0.35,0-0.7,0.01-1.04,0.03c-0.19,0.01-0.37,0.02-0.56,0.04
				c-0.09,0-0.17,0.01-0.26,0.02c-0.07,0-0.13,0.01-0.21,0.02c-0.12,0.01-0.23,0.02-0.35,0.04c-0.09,0.01-0.19,0.02-0.29,0.04
				c-0.15,0.01-0.31,0.04-0.46,0.06c-0.19,0.03-0.38,0.06-0.57,0.1c-0.17,0.03-0.34,0.07-0.5,0.1c-0.34,0.07-0.67,0.15-1,0.24
				c-0.56,0.15-1.11,0.32-1.64,0.52c-0.24,0.09-0.48,0.18-0.71,0.28c-0.01,0-0.01,0.01-0.01,0.01c-0.07,0.02-0.14,0.05-0.21,0.08
				c-0.07,0.02-0.14,0.05-0.2,0.09c-0.25,0.1-0.49,0.21-0.73,0.33c-0.08,0.03-0.15,0.07-0.23,0.11c-0.12,0.06-0.25,0.12-0.37,0.19
				c-0.06,0.02-0.11,0.05-0.17,0.09c-0.14,0.07-0.28,0.15-0.42,0.23c-0.02,0-0.04,0.02-0.07,0.04c-0.24,0.13-0.47,0.27-0.7,0.41
				c-0.27,0.17-0.54,0.35-0.8,0.53c-0.43,0.3-0.85,0.61-1.26,0.94c4.75,1.96,10.67,2.93,17.76,2.93c8.05,0,14.46-0.95,19.24-2.85
				C2569.34-1158.17,2569.32-1158.18,2569.31-1158.19z"/>
		</g>
	</g>
	<path d="M2509.33-1277.04c0,4.25-1.77,8.09-4.61,10.82c-2.7,2.59-6.35,4.18-10.39,4.18c-2.85,0-5.51-0.79-7.78-2.17
		c-4.33-2.63-7.22-7.4-7.22-12.83c0-6.12,3.66-11.37,8.9-13.7c1.86-0.84,3.93-1.3,6.1-1.3c2.67,0,5.17,0.69,7.33,1.91
		C2506.24-1287.56,2509.33-1282.67,2509.33-1277.04z"/>
	<path d="M2509.33-1277.04c0,4.25-1.77,8.09-4.61,10.82c-2.7,2.59-6.35,4.18-10.39,4.18c-2.85,0-5.51-0.79-7.78-2.17
		c-4.33-2.63-7.22-7.4-7.22-12.83c0-6.12,3.66-11.37,8.9-13.7c1.86-0.84,3.93-1.3,6.1-1.3c2.67,0,5.17,0.69,7.33,1.91
		C2506.24-1287.56,2509.33-1282.67,2509.33-1277.04z"/>
	<path d="M2619.33-1277.04c0,4.87-2.33,9.21-5.93,11.95c-2.52,1.91-5.66,3.05-9.07,3.05c-3.45,0-6.63-1.17-9.17-3.13
		c-3.54-2.74-5.83-7.04-5.83-11.87c0-6.17,3.73-11.47,9.05-13.77c1.83-0.79,3.84-1.23,5.95-1.23c2.71,0,5.25,0.72,7.44,1.97
		C2616.29-1287.48,2619.33-1282.62,2619.33-1277.04z"/>
	<path d="M2619.33-1277.04c0,4.87-2.33,9.21-5.93,11.95c-2.52,1.91-5.66,3.05-9.07,3.05c-3.45,0-6.63-1.17-9.17-3.13
		c-3.54-2.74-5.83-7.04-5.83-11.87c0-6.17,3.73-11.47,9.05-13.77c1.83-0.79,3.84-1.23,5.95-1.23c2.71,0,5.25,0.72,7.44,1.97
		C2616.29-1287.48,2619.33-1282.62,2619.33-1277.04z"/>
	<path d="M2576.78-1142.51c0,0.93-0.38,1.78-0.99,2.39c-0.61,0.61-1.46,0.99-2.39,0.99h-45.19c-1.86,0-3.38-1.52-3.38-3.38
		c0-0.51,0.02-1.02,0.07-1.53c0.36-4.97,2.55-9.45,5.89-12.79c3.67-3.67,8.75-5.95,14.32-5.95h11.39c10.64,0,19.43,8.3,20.21,18.74
		C2576.76-1143.53,2576.78-1143.02,2576.78-1142.51z"/>
	<path d="M2576.78-1142.51c0,0.93-0.38,1.78-0.99,2.39c-0.61,0.61-1.46,0.99-2.39,0.99h-45.19c-1.86,0-3.38-1.52-3.38-3.38
		c0-0.51,0.02-1.02,0.07-1.53c0.36-4.97,2.55-9.45,5.89-12.79c3.67-3.67,8.75-5.95,14.32-5.95h11.39c10.64,0,19.43,8.3,20.21,18.74
		C2576.76-1143.53,2576.78-1143.02,2576.78-1142.51z"/>
	<circle cx="3078.33" cy="-1332.05" r="15"/>
</g>
<g>
</g>
<g>
</g>
<g>
</g>
<g>
</g>
<g>
</g>
<g>
</g>
<g>
</g>
<g>
</g>
<g>
</g>
<g>
</g>
<g>
</g>
</svg>
